<?xml version="1.0" encoding="utf-8"?><!-- Uploaded to: SVG Repo, www.svgrepo.com, Generator: SVG Repo Mixer Tools -->
<svg fill="#000000" width="800px" height="800px" viewBox="0 0 24 24" id="backward-3" data-name="Flat Color" xmlns="http://www.w3.org/2000/svg" class="icon flat-color"><path id="primary" d="M17.46,4.11a1,1,0,0,0-1,.07L8,10.08V3A1,1,0,0,0,6,3V21a1,1,0,0,0,2,0V13.92l8.43,5.9A1,1,0,0,0,17,20a1,1,0,0,0,.46-.11A1,1,0,0,0,18,19V5A1,1,0,0,0,17.46,4.11Z" style="fill: rgb(0, 0, 0);"></path></svg>