<?xml version="1.0" encoding="utf-8"?><!-- Uploaded to: SVG Repo, www.svgrepo.com, Generator: SVG Repo Mixer Tools -->
<svg fill="#000000" width="800px" height="800px" viewBox="0 0 24 24" id="forward-3" data-name="Flat Color" xmlns="http://www.w3.org/2000/svg" class="icon flat-color"><path id="primary" d="M17,2a1,1,0,0,0-1,1v7.08L7.57,4.18a1,1,0,0,0-1-.07A1,1,0,0,0,6,5V19a1,1,0,0,0,.54.89A1,1,0,0,0,7,20a1,1,0,0,0,.57-.18L16,13.92V21a1,1,0,0,0,2,0V3A1,1,0,0,0,17,2Z" style="fill: rgb(0, 0, 0);"></path></svg>