<?xml version="1.0" encoding="UTF-8" standalone="no"?>
<!-- Created with Inkscape (http://www.inkscape.org/) -->

<svg
   xmlns:dc="http://purl.org/dc/elements/1.1/"
   xmlns:cc="http://creativecommons.org/ns#"
   xmlns:rdf="http://www.w3.org/1999/02/22-rdf-syntax-ns#"
   xmlns:svg="http://www.w3.org/2000/svg"
   xmlns="http://www.w3.org/2000/svg"
   xmlns:sodipodi="http://sodipodi.sourceforge.net/DTD/sodipodi-0.dtd"
   xmlns:inkscape="http://www.inkscape.org/namespaces/inkscape"
   width="301.96875"
   height="329.40625"
   id="svg4132"
   version="1.1"
   inkscape:version="0.48.2 r9819"
   sodipodi:docname="Red_tree_icon.svg">
  <defs
     id="defs4134">
    <inkscape:path-effect
       effect="skeletal"
       id="path-effect4949"
       is_visible="true"
       pattern="M 0,0 0,10 10,5 z"
       copytype="single_stretched"
       prop_scale="1"
       scale_y_rel="false"
       spacing="0"
       normal_offset="0"
       tang_offset="0"
       prop_units="false"
       vertical_pattern="false"
       fuse_tolerance="0" />
    <inkscape:path-effect
       effect="skeletal"
       id="path-effect4945"
       is_visible="true"
       pattern="M 0,0 0,10 10,5 z"
       copytype="single_stretched"
       prop_scale="1"
       scale_y_rel="false"
       spacing="0"
       normal_offset="0"
       tang_offset="0"
       prop_units="false"
       vertical_pattern="false"
       fuse_tolerance="0" />
    <inkscape:path-effect
       effect="skeletal"
       id="path-effect4941"
       is_visible="true"
       pattern="M 0,0 0,10 10,5 z"
       copytype="single_stretched"
       prop_scale="1"
       scale_y_rel="false"
       spacing="0"
       normal_offset="0"
       tang_offset="0"
       prop_units="false"
       vertical_pattern="false"
       fuse_tolerance="0" />
    <inkscape:path-effect
       effect="skeletal"
       id="path-effect4937"
       is_visible="true"
       pattern="M 0,0 0,10 10,5 z"
       copytype="single_stretched"
       prop_scale="1"
       scale_y_rel="false"
       spacing="0"
       normal_offset="0"
       tang_offset="0"
       prop_units="false"
       vertical_pattern="false"
       fuse_tolerance="0" />
    <inkscape:path-effect
       effect="skeletal"
       id="path-effect4933"
       is_visible="true"
       pattern="M 0,5 10,10 10,0 z"
       copytype="single_stretched"
       prop_scale="1"
       scale_y_rel="false"
       spacing="0"
       normal_offset="0"
       tang_offset="0"
       prop_units="false"
       vertical_pattern="false"
       fuse_tolerance="0" />
    <inkscape:path-effect
       effect="skeletal"
       id="path-effect4794"
       is_visible="true"
       pattern="M 0,5 10,10 10,0 z"
       copytype="single_stretched"
       prop_scale="1"
       scale_y_rel="false"
       spacing="0"
       normal_offset="0"
       tang_offset="0"
       prop_units="false"
       vertical_pattern="false"
       fuse_tolerance="0" />
  </defs>
  <sodipodi:namedview
     id="base"
     pagecolor="#ffffff"
     bordercolor="#666666"
     borderopacity="1.0"
     inkscape:pageopacity="0.0"
     inkscape:pageshadow="2"
     inkscape:zoom="1.2392811"
     inkscape:cx="10.368203"
     inkscape:cy="162.54575"
     inkscape:document-units="px"
     inkscape:current-layer="layer1"
     showgrid="false"
     fit-margin-top="0"
     fit-margin-left="0"
     fit-margin-right="0"
     fit-margin-bottom="0"
     inkscape:window-width="1280"
     inkscape:window-height="744"
     inkscape:window-x="-4"
     inkscape:window-y="-4"
     inkscape:window-maximized="1" />
  <metadata
     id="metadata4137">
    <rdf:RDF>
      <cc:Work
         rdf:about="">
        <dc:format>image/svg+xml</dc:format>
        <dc:type
           rdf:resource="http://purl.org/dc/dcmitype/StillImage" />
        <dc:title></dc:title>
      </cc:Work>
    </rdf:RDF>
  </metadata>
  <g
     inkscape:label="Layer 1"
     inkscape:groupmode="layer"
     id="layer1"
     transform="translate(-164.34375,-296)">
    <rect
       style="fill:#f2f2f2;fill-opacity:1;fill-rule:nonzero;stroke:#550000;stroke-width:5;stroke-miterlimit:4;stroke-dasharray:none"
       id="rect5091"
       width="296.94635"
       height="324.38162"
       x="166.85411"
       y="298.50928"
       ry="41.446709" />
    <path
       d="m -1031.4286,315.21933 c 0,17.35752 -14.0711,31.42857 -31.4286,31.42857 -17.3575,0 -31.4285,-14.07105 -31.4285,-31.42857 0,-17.35752 14.071,-31.42857 31.4285,-31.42857 17.3575,0 31.4286,14.07105 31.4286,31.42857 z"
       sodipodi:ry="31.428572"
       sodipodi:rx="31.428572"
       sodipodi:cy="315.21933"
       sodipodi:cx="-1062.8572"
       id="use4230"
       style="fill:#ff0000;fill-opacity:1;fill-rule:nonzero;stroke:none"
       sodipodi:type="arc"
       transform="matrix(0.59925258,0,0,0.59925258,888.51874,266.43299)" />
    <path
       d="m -1031.4286,315.21933 c 0,17.35752 -14.0711,31.42857 -31.4286,31.42857 -17.3575,0 -31.4285,-14.07105 -31.4285,-31.42857 0,-17.35752 14.071,-31.42857 31.4285,-31.42857 17.3575,0 31.4286,14.07105 31.4286,31.42857 z"
       sodipodi:ry="31.428572"
       sodipodi:rx="31.428572"
       sodipodi:cy="315.21933"
       sodipodi:cx="-1062.8572"
       id="use4232"
       style="fill:#ff0000;fill-opacity:1;fill-rule:nonzero;stroke:none"
       sodipodi:type="arc"
       transform="matrix(0.5280572,0,0,0.5280572,790.12695,231.50519)" />
    <path
       d="m -1031.4286,315.21933 c 0,17.35752 -14.0711,31.42857 -31.4286,31.42857 -17.3575,0 -31.4285,-14.07105 -31.4285,-31.42857 0,-17.35752 14.071,-31.42857 31.4285,-31.42857 17.3575,0 31.4286,14.07105 31.4286,31.42857 z"
       sodipodi:ry="31.428572"
       sodipodi:rx="31.428572"
       sodipodi:cy="315.21933"
       sodipodi:cx="-1062.8572"
       id="use4234"
       style="fill:#ff0000;fill-opacity:1;fill-rule:nonzero;stroke:none"
       sodipodi:type="arc"
       transform="matrix(0.36290158,0,0,0.36290158,638.49267,269.11527)" />
    <path
       d="m -1031.4286,315.21933 c 0,17.35752 -14.0711,31.42857 -31.4286,31.42857 -17.3575,0 -31.4285,-14.07105 -31.4285,-31.42857 0,-17.35752 14.071,-31.42857 31.4285,-31.42857 17.3575,0 31.4286,14.07105 31.4286,31.42857 z"
       sodipodi:ry="31.428572"
       sodipodi:rx="31.428572"
       sodipodi:cy="315.21933"
       sodipodi:cx="-1062.8572"
       id="use4236"
       style="fill:#ff0000;fill-opacity:1;fill-rule:nonzero;stroke:none"
       sodipodi:type="arc"
       transform="matrix(0.60427586,0,0,0.60427586,887.56584,222.28231)" />
    <path
       d="m -1031.4286,315.21933 c 0,17.35752 -14.0711,31.42857 -31.4286,31.42857 -17.3575,0 -31.4285,-14.07105 -31.4285,-31.42857 0,-17.35752 14.071,-31.42857 31.4285,-31.42857 17.3575,0 31.4286,14.07105 31.4286,31.42857 z"
       sodipodi:ry="31.428572"
       sodipodi:rx="31.428572"
       sodipodi:cy="315.21933"
       sodipodi:cx="-1062.8572"
       id="use4238"
       style="fill:#ff0000;fill-opacity:1;fill-rule:nonzero;stroke:none"
       sodipodi:type="arc"
       transform="matrix(0.27428728,0,0,0.27428728,569.67561,269.73034)" />
    <path
       d="m -1031.4286,315.21933 c 0,17.35752 -14.0711,31.42857 -31.4286,31.42857 -17.3575,0 -31.4285,-14.07105 -31.4285,-31.42857 0,-17.35752 14.071,-31.42857 31.4285,-31.42857 17.3575,0 31.4286,14.07105 31.4286,31.42857 z"
       sodipodi:ry="31.428572"
       sodipodi:rx="31.428572"
       sodipodi:cy="315.21933"
       sodipodi:cx="-1062.8572"
       id="use4240"
       style="fill:#ff0000;fill-opacity:1;fill-rule:nonzero;stroke:none"
       sodipodi:type="arc"
       transform="matrix(0.4732127,0,0,0.4732127,792.05715,234.39028)" />
    <path
       d="m -1031.4286,315.21933 c 0,17.35752 -14.0711,31.42857 -31.4286,31.42857 -17.3575,0 -31.4285,-14.07105 -31.4285,-31.42857 0,-17.35752 14.071,-31.42857 31.4285,-31.42857 17.3575,0 31.4286,14.07105 31.4286,31.42857 z"
       sodipodi:ry="31.428572"
       sodipodi:rx="31.428572"
       sodipodi:cy="315.21933"
       sodipodi:cx="-1062.8572"
       id="use4242"
       style="fill:#ff0000;fill-opacity:1;fill-rule:nonzero;stroke:none"
       sodipodi:type="arc"
       transform="matrix(0.6912238,0,0,0.6912238,1051.5402,178.07111)" />
    <path
       d="m -1031.4286,315.21933 c 0,17.35752 -14.0711,31.42857 -31.4286,31.42857 -17.3575,0 -31.4285,-14.07105 -31.4285,-31.42857 0,-17.35752 14.071,-31.42857 31.4285,-31.42857 17.3575,0 31.4286,14.07105 31.4286,31.42857 z"
       sodipodi:ry="31.428572"
       sodipodi:rx="31.428572"
       sodipodi:cy="315.21933"
       sodipodi:cx="-1062.8572"
       id="use4244"
       style="fill:#ff0000;fill-opacity:1;fill-rule:nonzero;stroke:none"
       sodipodi:type="arc"
       transform="matrix(0.46871322,0,0,0.46871322,823.43465,269.49041)" />
    <path
       d="m -1031.4286,315.21933 c 0,17.35752 -14.0711,31.42857 -31.4286,31.42857 -17.3575,0 -31.4285,-14.07105 -31.4285,-31.42857 0,-17.35752 14.071,-31.42857 31.4285,-31.42857 17.3575,0 31.4286,14.07105 31.4286,31.42857 z"
       sodipodi:ry="31.428572"
       sodipodi:rx="31.428572"
       sodipodi:cy="315.21933"
       sodipodi:cx="-1062.8572"
       id="use4246"
       style="fill:#ff0000;fill-opacity:1;fill-rule:nonzero;stroke:none"
       sodipodi:type="arc"
       transform="matrix(0.35249229,0,0,0.35249229,702.23701,262.30155)" />
    <path
       d="m -1031.4286,315.21933 c 0,17.35752 -14.0711,31.42857 -31.4286,31.42857 -17.3575,0 -31.4285,-14.07105 -31.4285,-31.42857 0,-17.35752 14.071,-31.42857 31.4285,-31.42857 17.3575,0 31.4286,14.07105 31.4286,31.42857 z"
       sodipodi:ry="31.428572"
       sodipodi:rx="31.428572"
       sodipodi:cy="315.21933"
       sodipodi:cx="-1062.8572"
       id="use4248"
       style="fill:#ff0000;fill-opacity:1;fill-rule:nonzero;stroke:none"
       sodipodi:type="arc"
       transform="matrix(0.70490232,0,0,0.70490232,1107.9406,150.58092)" />
    <path
       d="m -1031.4286,315.21933 c 0,17.35752 -14.0711,31.42857 -31.4286,31.42857 -17.3575,0 -31.4285,-14.07105 -31.4285,-31.42857 0,-17.35752 14.071,-31.42857 31.4285,-31.42857 17.3575,0 31.4286,14.07105 31.4286,31.42857 z"
       sodipodi:ry="31.428572"
       sodipodi:rx="31.428572"
       sodipodi:cy="315.21933"
       sodipodi:cx="-1062.8572"
       id="use4250"
       style="fill:#ff0000;fill-opacity:1;fill-rule:nonzero;stroke:none"
       sodipodi:type="arc"
       transform="matrix(0.32424686,0,0,0.32424686,651.51749,301.34444)" />
    <path
       d="m -1031.4286,315.21933 c 0,17.35752 -14.0711,31.42857 -31.4286,31.42857 -17.3575,0 -31.4285,-14.07105 -31.4285,-31.42857 0,-17.35752 14.071,-31.42857 31.4285,-31.42857 17.3575,0 31.4286,14.07105 31.4286,31.42857 z"
       sodipodi:ry="31.428572"
       sodipodi:rx="31.428572"
       sodipodi:cy="315.21933"
       sodipodi:cx="-1062.8572"
       id="use4252"
       style="fill:#ff0000;fill-opacity:1;fill-rule:nonzero;stroke:none"
       sodipodi:type="arc"
       transform="matrix(0.4398988,0,0,0.4398988,786.97908,233.81812)" />
    <path
       d="m -1031.4286,315.21933 c 0,17.35752 -14.0711,31.42857 -31.4286,31.42857 -17.3575,0 -31.4285,-14.07105 -31.4285,-31.42857 0,-17.35752 14.071,-31.42857 31.4285,-31.42857 17.3575,0 31.4286,14.07105 31.4286,31.42857 z"
       sodipodi:ry="31.428572"
       sodipodi:rx="31.428572"
       sodipodi:cy="315.21933"
       sodipodi:cx="-1062.8572"
       id="use4254"
       style="fill:#ff0000;fill-opacity:1;fill-rule:nonzero;stroke:none"
       sodipodi:type="arc"
       transform="matrix(0.40695723,0,0,0.40695723,725.74234,233.77092)" />
    <path
       d="m -1031.4286,315.21933 c 0,17.35752 -14.0711,31.42857 -31.4286,31.42857 -17.3575,0 -31.4285,-14.07105 -31.4285,-31.42857 0,-17.35752 14.071,-31.42857 31.4285,-31.42857 17.3575,0 31.4286,14.07105 31.4286,31.42857 z"
       sodipodi:ry="31.428572"
       sodipodi:rx="31.428572"
       sodipodi:cy="315.21933"
       sodipodi:cx="-1062.8572"
       id="use4256"
       style="fill:#ff0000;fill-opacity:1;fill-rule:nonzero;stroke:none"
       sodipodi:type="arc"
       transform="matrix(0.30511149,0,0,0.30511149,649.10152,306.73222)" />
    <path
       d="m -1031.4286,315.21933 c 0,17.35752 -14.0711,31.42857 -31.4286,31.42857 -17.3575,0 -31.4285,-14.07105 -31.4285,-31.42857 0,-17.35752 14.071,-31.42857 31.4285,-31.42857 17.3575,0 31.4286,14.07105 31.4286,31.42857 z"
       sodipodi:ry="31.428572"
       sodipodi:rx="31.428572"
       sodipodi:cy="315.21933"
       sodipodi:cx="-1062.8572"
       id="use4258"
       style="fill:#ff0000;fill-opacity:1;fill-rule:nonzero;stroke:none"
       sodipodi:type="arc"
       transform="matrix(0.4912578,0,0,0.4912578,883.25653,232.63286)" />
    <path
       d="m -1031.4286,315.21933 c 0,17.35752 -14.0711,31.42857 -31.4286,31.42857 -17.3575,0 -31.4285,-14.07105 -31.4285,-31.42857 0,-17.35752 14.071,-31.42857 31.4285,-31.42857 17.3575,0 31.4286,14.07105 31.4286,31.42857 z"
       sodipodi:ry="31.428572"
       sodipodi:rx="31.428572"
       sodipodi:cy="315.21933"
       sodipodi:cx="-1062.8572"
       id="use4260"
       style="fill:#ff0000;fill-opacity:1;fill-rule:nonzero;stroke:none"
       sodipodi:type="arc"
       transform="matrix(0.44694716,0,0,0.44694716,812.82267,260.54545)" />
    <path
       d="m -1031.4286,315.21933 c 0,17.35752 -14.0711,31.42857 -31.4286,31.42857 -17.3575,0 -31.4285,-14.07105 -31.4285,-31.42857 0,-17.35752 14.071,-31.42857 31.4285,-31.42857 17.3575,0 31.4286,14.07105 31.4286,31.42857 z"
       sodipodi:ry="31.428572"
       sodipodi:rx="31.428572"
       sodipodi:cy="315.21933"
       sodipodi:cx="-1062.8572"
       id="use4262"
       style="fill:#ff0000;fill-opacity:1;fill-rule:nonzero;stroke:none"
       sodipodi:type="arc"
       transform="matrix(0.25211377,0,0,0.25211377,575.24674,354.03939)" />
    <path
       d="m -1031.4286,315.21933 c 0,17.35752 -14.0711,31.42857 -31.4286,31.42857 -17.3575,0 -31.4285,-14.07105 -31.4285,-31.42857 0,-17.35752 14.071,-31.42857 31.4285,-31.42857 17.3575,0 31.4286,14.07105 31.4286,31.42857 z"
       sodipodi:ry="31.428572"
       sodipodi:rx="31.428572"
       sodipodi:cy="315.21933"
       sodipodi:cx="-1062.8572"
       id="use4264"
       style="fill:#ff0000;fill-opacity:1;fill-rule:nonzero;stroke:none"
       sodipodi:type="arc"
       transform="matrix(0.40014376,0,0,0.40014376,695.74328,305.08123)" />
    <path
       d="m -1031.4286,315.21933 c 0,17.35752 -14.0711,31.42857 -31.4286,31.42857 -17.3575,0 -31.4285,-14.07105 -31.4285,-31.42857 0,-17.35752 14.071,-31.42857 31.4285,-31.42857 17.3575,0 31.4286,14.07105 31.4286,31.42857 z"
       sodipodi:ry="31.428572"
       sodipodi:rx="31.428572"
       sodipodi:cy="315.21933"
       sodipodi:cx="-1062.8572"
       id="use4266"
       style="fill:#d40000;fill-opacity:1;fill-rule:nonzero;stroke:none"
       sodipodi:type="arc"
       transform="matrix(0.62500394,0,0,0.62500394,939.045,208.67798)" />
    <path
       d="m -1031.4286,315.21933 c 0,17.35752 -14.0711,31.42857 -31.4286,31.42857 -17.3575,0 -31.4285,-14.07105 -31.4285,-31.42857 0,-17.35752 14.071,-31.42857 31.4285,-31.42857 17.3575,0 31.4286,14.07105 31.4286,31.42857 z"
       sodipodi:ry="31.428572"
       sodipodi:rx="31.428572"
       sodipodi:cy="315.21933"
       sodipodi:cx="-1062.8572"
       id="use4268"
       style="fill:#ff0000;fill-opacity:1;fill-rule:nonzero;stroke:none"
       sodipodi:type="arc"
       transform="matrix(0.28916479,0,0,0.28916479,596.76061,306.8895)" />
    <path
       d="m -1031.4286,315.21933 c 0,17.35752 -14.0711,31.42857 -31.4286,31.42857 -17.3575,0 -31.4285,-14.07105 -31.4285,-31.42857 0,-17.35752 14.071,-31.42857 31.4285,-31.42857 17.3575,0 31.4286,14.07105 31.4286,31.42857 z"
       sodipodi:ry="31.428572"
       sodipodi:rx="31.428572"
       sodipodi:cy="315.21933"
       sodipodi:cx="-1062.8572"
       id="use4270"
       style="fill:#ff0000;fill-opacity:1;fill-rule:nonzero;stroke:none"
       sodipodi:type="arc"
       transform="matrix(0.29491535,0,0,0.29491535,589.3478,305.72836)" />
    <path
       d="m -1031.4286,315.21933 c 0,17.35752 -14.0711,31.42857 -31.4286,31.42857 -17.3575,0 -31.4285,-14.07105 -31.4285,-31.42857 0,-17.35752 14.071,-31.42857 31.4285,-31.42857 17.3575,0 31.4286,14.07105 31.4286,31.42857 z"
       sodipodi:ry="31.428572"
       sodipodi:rx="31.428572"
       sodipodi:cy="315.21933"
       sodipodi:cx="-1062.8572"
       id="use4272"
       style="fill:#ff0000;fill-opacity:1;fill-rule:nonzero;stroke:none"
       sodipodi:type="arc"
       transform="matrix(0.61653079,0,0,0.61653079,935.53207,191.95888)" />
    <path
       d="m -1031.4286,315.21933 c 0,17.35752 -14.0711,31.42857 -31.4286,31.42857 -17.3575,0 -31.4285,-14.07105 -31.4285,-31.42857 0,-17.35752 14.071,-31.42857 31.4285,-31.42857 17.3575,0 31.4286,14.07105 31.4286,31.42857 z"
       sodipodi:ry="31.428572"
       sodipodi:rx="31.428572"
       sodipodi:cy="315.21933"
       sodipodi:cx="-1062.8572"
       id="use4274"
       style="fill:#ff8080;fill-opacity:1;fill-rule:nonzero;stroke:none"
       sodipodi:type="arc"
       transform="matrix(0.51455992,0,0,0.51455992,814.81177,179.49517)" />
    <path
       d="m -1031.4286,315.21933 c 0,17.35752 -14.0711,31.42857 -31.4286,31.42857 -17.3575,0 -31.4285,-14.07105 -31.4285,-31.42857 0,-17.35752 14.071,-31.42857 31.4285,-31.42857 17.3575,0 31.4286,14.07105 31.4286,31.42857 z"
       sodipodi:ry="31.428572"
       sodipodi:rx="31.428572"
       sodipodi:cy="315.21933"
       sodipodi:cx="-1062.8572"
       id="use4276"
       style="fill:#ff0000;fill-opacity:1;fill-rule:nonzero;stroke:none"
       sodipodi:type="arc"
       transform="matrix(0.24442231,0,0,0.24442231,495.61224,280.9541)" />
    <path
       d="m -1031.4286,315.21933 c 0,17.35752 -14.0711,31.42857 -31.4286,31.42857 -17.3575,0 -31.4285,-14.07105 -31.4285,-31.42857 0,-17.35752 14.071,-31.42857 31.4285,-31.42857 17.3575,0 31.4286,14.07105 31.4286,31.42857 z"
       sodipodi:ry="31.428572"
       sodipodi:rx="31.428572"
       sodipodi:cy="315.21933"
       sodipodi:cx="-1062.8572"
       id="use4278"
       style="fill:#ff0000;fill-opacity:1;fill-rule:nonzero;stroke:none"
       sodipodi:type="arc"
       transform="matrix(0.36780855,0,0,0.36780855,716.6301,217.23816)" />
    <path
       d="m -1031.4286,315.21933 c 0,17.35752 -14.0711,31.42857 -31.4286,31.42857 -17.3575,0 -31.4285,-14.07105 -31.4285,-31.42857 0,-17.35752 14.071,-31.42857 31.4285,-31.42857 17.3575,0 31.4286,14.07105 31.4286,31.42857 z"
       sodipodi:ry="31.428572"
       sodipodi:rx="31.428572"
       sodipodi:cy="315.21933"
       sodipodi:cx="-1062.8572"
       id="use4282"
       style="fill:#ff0000;fill-opacity:1;fill-rule:nonzero;stroke:none"
       sodipodi:type="arc"
       transform="matrix(0.34918523,0,0,0.34918523,664.59388,213.41759)" />
    <path
       d="m -1031.4286,315.21933 c 0,17.35752 -14.0711,31.42857 -31.4286,31.42857 -17.3575,0 -31.4285,-14.07105 -31.4285,-31.42857 0,-17.35752 14.071,-31.42857 31.4285,-31.42857 17.3575,0 31.4286,14.07105 31.4286,31.42857 z"
       sodipodi:ry="31.428572"
       sodipodi:rx="31.428572"
       sodipodi:cy="315.21933"
       sodipodi:cx="-1062.8572"
       id="use4284"
       style="fill:#ff0000;fill-opacity:1;fill-rule:nonzero;stroke:none"
       sodipodi:type="arc"
       transform="matrix(0.52155917,0,0,0.52155917,874.96668,179.78618)" />
    <path
       d="m -1031.4286,315.21933 c 0,17.35752 -14.0711,31.42857 -31.4286,31.42857 -17.3575,0 -31.4285,-14.07105 -31.4285,-31.42857 0,-17.35752 14.071,-31.42857 31.4285,-31.42857 17.3575,0 31.4286,14.07105 31.4286,31.42857 z"
       sodipodi:ry="31.428572"
       sodipodi:rx="31.428572"
       sodipodi:cy="315.21933"
       sodipodi:cx="-1062.8572"
       id="use4286"
       style="fill:#ff0000;fill-opacity:1;fill-rule:nonzero;stroke:none"
       sodipodi:type="arc"
       transform="matrix(0.29513103,0,0,0.29513103,629.79212,243.54565)" />
    <path
       d="m -1031.4286,315.21933 c 0,17.35752 -14.0711,31.42857 -31.4286,31.42857 -17.3575,0 -31.4285,-14.07105 -31.4285,-31.42857 0,-17.35752 14.071,-31.42857 31.4285,-31.42857 17.3575,0 31.4286,14.07105 31.4286,31.42857 z"
       sodipodi:ry="31.428572"
       sodipodi:rx="31.428572"
       sodipodi:cy="315.21933"
       sodipodi:cx="-1062.8572"
       id="use4288"
       style="fill:#aa0000;fill-opacity:1;fill-rule:nonzero;stroke:none"
       sodipodi:type="arc"
       transform="matrix(0.31425277,0,0,0.31425277,677.26612,252.25096)" />
    <path
       d="m -1031.4286,315.21933 c 0,17.35752 -14.0711,31.42857 -31.4286,31.42857 -17.3575,0 -31.4285,-14.07105 -31.4285,-31.42857 0,-17.35752 14.071,-31.42857 31.4285,-31.42857 17.3575,0 31.4286,14.07105 31.4286,31.42857 z"
       sodipodi:ry="31.428572"
       sodipodi:rx="31.428572"
       sodipodi:cy="315.21933"
       sodipodi:cx="-1062.8572"
       id="use4292"
       style="fill:#ff0000;fill-opacity:1;fill-rule:nonzero;stroke:none"
       sodipodi:type="arc"
       transform="matrix(0.51092863,0,0,0.51092863,914.02458,216.34726)" />
    <path
       d="m -1031.4286,315.21933 c 0,17.35752 -14.0711,31.42857 -31.4286,31.42857 -17.3575,0 -31.4285,-14.07105 -31.4285,-31.42857 0,-17.35752 14.071,-31.42857 31.4285,-31.42857 17.3575,0 31.4286,14.07105 31.4286,31.42857 z"
       sodipodi:ry="31.428572"
       sodipodi:rx="31.428572"
       sodipodi:cy="315.21933"
       sodipodi:cx="-1062.8572"
       id="use4294"
       style="fill:#ffaaaa;fill-opacity:1;fill-rule:nonzero;stroke:none"
       sodipodi:type="arc"
       transform="matrix(0.38837629,0,0,0.38837629,645.68299,406.85171)" />
    <path
       d="m -1031.4286,315.21933 c 0,17.35752 -14.0711,31.42857 -31.4286,31.42857 -17.3575,0 -31.4285,-14.07105 -31.4285,-31.42857 0,-17.35752 14.071,-31.42857 31.4285,-31.42857 17.3575,0 31.4286,14.07105 31.4286,31.42857 z"
       sodipodi:ry="31.428572"
       sodipodi:rx="31.428572"
       sodipodi:cy="315.21933"
       sodipodi:cx="-1062.8572"
       id="use4296"
       style="fill:#ff0000;fill-opacity:1;fill-rule:nonzero;stroke:none"
       sodipodi:type="arc"
       transform="matrix(0.29105541,0,0,0.29105541,676.74065,290.51804)" />
    <path
       d="m -1031.4286,315.21933 c 0,17.35752 -14.0711,31.42857 -31.4286,31.42857 -17.3575,0 -31.4285,-14.07105 -31.4285,-31.42857 0,-17.35752 14.071,-31.42857 31.4285,-31.42857 17.3575,0 31.4286,14.07105 31.4286,31.42857 z"
       sodipodi:ry="31.428572"
       sodipodi:rx="31.428572"
       sodipodi:cy="315.21933"
       sodipodi:cx="-1062.8572"
       id="use4298"
       style="fill:#ff0000;fill-opacity:1;fill-rule:nonzero;stroke:none"
       sodipodi:type="arc"
       transform="matrix(0.42197389,0,0,0.42197389,839.14018,294.03735)" />
    <path
       d="m -1031.4286,315.21933 c 0,17.35752 -14.0711,31.42857 -31.4286,31.42857 -17.3575,0 -31.4285,-14.07105 -31.4285,-31.42857 0,-17.35752 14.071,-31.42857 31.4285,-31.42857 17.3575,0 31.4286,14.07105 31.4286,31.42857 z"
       sodipodi:ry="31.428572"
       sodipodi:rx="31.428572"
       sodipodi:cy="315.21933"
       sodipodi:cx="-1062.8572"
       id="use4300"
       style="fill:#ff0000;fill-opacity:1;fill-rule:nonzero;stroke:none"
       sodipodi:type="arc"
       transform="matrix(0.46403993,0,0,0.46403993,916.54137,253.31232)" />
    <path
       d="m -1031.4286,315.21933 c 0,17.35752 -14.0711,31.42857 -31.4286,31.42857 -17.3575,0 -31.4285,-14.07105 -31.4285,-31.42857 0,-17.35752 14.071,-31.42857 31.4285,-31.42857 17.3575,0 31.4286,14.07105 31.4286,31.42857 z"
       sodipodi:ry="31.428572"
       sodipodi:rx="31.428572"
       sodipodi:cy="315.21933"
       sodipodi:cx="-1062.8572"
       id="use4302"
       style="fill:#ff0000;fill-opacity:1;fill-rule:nonzero;stroke:none"
       sodipodi:type="arc"
       transform="matrix(0.25750769,0,0,0.25750769,673.98319,329.11248)" />
    <path
       d="m -1031.4286,315.21933 c 0,17.35752 -14.0711,31.42857 -31.4286,31.42857 -17.3575,0 -31.4285,-14.07105 -31.4285,-31.42857 0,-17.35752 14.071,-31.42857 31.4285,-31.42857 17.3575,0 31.4286,14.07105 31.4286,31.42857 z"
       sodipodi:ry="31.428572"
       sodipodi:rx="31.428572"
       sodipodi:cy="315.21933"
       sodipodi:cx="-1062.8572"
       id="use4304"
       style="fill:#ff0000;fill-opacity:1;fill-rule:nonzero;stroke:none"
       sodipodi:type="arc"
       transform="matrix(0.64758671,0,0,0.64758671,1097.0991,265.22007)" />
    <path
       d="m -1031.4286,315.21933 c 0,17.35752 -14.0711,31.42857 -31.4286,31.42857 -17.3575,0 -31.4285,-14.07105 -31.4285,-31.42857 0,-17.35752 14.071,-31.42857 31.4285,-31.42857 17.3575,0 31.4286,14.07105 31.4286,31.42857 z"
       sodipodi:ry="31.428572"
       sodipodi:rx="31.428572"
       sodipodi:cy="315.21933"
       sodipodi:cx="-1062.8572"
       id="use4306"
       style="fill:#ff0000;fill-opacity:1;fill-rule:nonzero;stroke:none"
       sodipodi:type="arc"
       transform="matrix(0.40065864,0,0,0.40065864,780.45506,336.32288)" />
    <path
       d="m -1031.4286,315.21933 c 0,17.35752 -14.0711,31.42857 -31.4286,31.42857 -17.3575,0 -31.4285,-14.07105 -31.4285,-31.42857 0,-17.35752 14.071,-31.42857 31.4285,-31.42857 17.3575,0 31.4286,14.07105 31.4286,31.42857 z"
       sodipodi:ry="31.428572"
       sodipodi:rx="31.428572"
       sodipodi:cy="315.21933"
       sodipodi:cx="-1062.8572"
       id="use4308"
       style="fill:#ff0000;fill-opacity:1;fill-rule:nonzero;stroke:none"
       sodipodi:type="arc"
       transform="matrix(0.37112966,0,0,0.37112966,733.00889,387.23035)" />
    <path
       d="m -1031.4286,315.21933 c 0,17.35752 -14.0711,31.42857 -31.4286,31.42857 -17.3575,0 -31.4285,-14.07105 -31.4285,-31.42857 0,-17.35752 14.071,-31.42857 31.4285,-31.42857 17.3575,0 31.4286,14.07105 31.4286,31.42857 z"
       sodipodi:ry="31.428572"
       sodipodi:rx="31.428572"
       sodipodi:cy="315.21933"
       sodipodi:cx="-1062.8572"
       id="use4310"
       style="fill:#ff0000;fill-opacity:1;fill-rule:nonzero;stroke:none"
       sodipodi:type="arc"
       transform="matrix(0.59215123,0,0,0.59215123,956.4059,253.01039)" />
    <path
       d="m -1031.4286,315.21933 c 0,17.35752 -14.0711,31.42857 -31.4286,31.42857 -17.3575,0 -31.4285,-14.07105 -31.4285,-31.42857 0,-17.35752 14.071,-31.42857 31.4285,-31.42857 17.3575,0 31.4286,14.07105 31.4286,31.42857 z"
       sodipodi:ry="31.428572"
       sodipodi:rx="31.428572"
       sodipodi:cy="315.21933"
       sodipodi:cx="-1062.8572"
       id="use4312"
       style="fill:#ff0000;fill-opacity:1;fill-rule:nonzero;stroke:none"
       sodipodi:type="arc"
       transform="matrix(0.24107732,0,0,0.24107732,606.28157,393.31989)" />
    <path
       d="m -1031.4286,315.21933 c 0,17.35752 -14.0711,31.42857 -31.4286,31.42857 -17.3575,0 -31.4285,-14.07105 -31.4285,-31.42857 0,-17.35752 14.071,-31.42857 31.4285,-31.42857 17.3575,0 31.4286,14.07105 31.4286,31.42857 z"
       sodipodi:ry="31.428572"
       sodipodi:rx="31.428572"
       sodipodi:cy="315.21933"
       sodipodi:cx="-1062.8572"
       id="use4314"
       style="fill:#ff0000;fill-opacity:1;fill-rule:nonzero;stroke:none"
       sodipodi:type="arc"
       transform="matrix(0.33739697,0,0,0.33739697,659.15414,400.36125)" />
    <path
       d="m -1031.4286,315.21933 c 0,17.35752 -14.0711,31.42857 -31.4286,31.42857 -17.3575,0 -31.4285,-14.07105 -31.4285,-31.42857 0,-17.35752 14.071,-31.42857 31.4285,-31.42857 17.3575,0 31.4286,14.07105 31.4286,31.42857 z"
       sodipodi:ry="31.428572"
       sodipodi:rx="31.428572"
       sodipodi:cy="315.21933"
       sodipodi:cx="-1062.8572"
       id="use4316"
       style="fill:#ff0000;fill-opacity:1;fill-rule:nonzero;stroke:none"
       sodipodi:type="arc"
       transform="matrix(0.34396032,0,0,0.34396032,659.75929,336.87762)" />
    <path
       d="m -1031.4286,315.21933 c 0,17.35752 -14.0711,31.42857 -31.4286,31.42857 -17.3575,0 -31.4285,-14.07105 -31.4285,-31.42857 0,-17.35752 14.071,-31.42857 31.4285,-31.42857 17.3575,0 31.4286,14.07105 31.4286,31.42857 z"
       sodipodi:ry="31.428572"
       sodipodi:rx="31.428572"
       sodipodi:cy="315.21933"
       sodipodi:cx="-1062.8572"
       id="use4318"
       style="fill:#ff0000;fill-opacity:1;fill-rule:nonzero;stroke:none"
       sodipodi:type="arc"
       transform="matrix(0.30777141,0,0,0.30777141,672.35792,329.16381)" />
    <path
       d="m -1031.4286,315.21933 c 0,17.35752 -14.0711,31.42857 -31.4286,31.42857 -17.3575,0 -31.4285,-14.07105 -31.4285,-31.42857 0,-17.35752 14.071,-31.42857 31.4285,-31.42857 17.3575,0 31.4286,14.07105 31.4286,31.42857 z"
       sodipodi:ry="31.428572"
       sodipodi:rx="31.428572"
       sodipodi:cy="315.21933"
       sodipodi:cx="-1062.8572"
       id="use4320"
       style="fill:#800000;fill-opacity:1;fill-rule:nonzero;stroke:none"
       sodipodi:type="arc"
       transform="matrix(0.60729902,0,0,0.60729902,972.56344,201.44585)" />
    <path
       d="m -1031.4286,315.21933 c 0,17.35752 -14.0711,31.42857 -31.4286,31.42857 -17.3575,0 -31.4285,-14.07105 -31.4285,-31.42857 0,-17.35752 14.071,-31.42857 31.4285,-31.42857 17.3575,0 31.4286,14.07105 31.4286,31.42857 z"
       sodipodi:ry="31.428572"
       sodipodi:rx="31.428572"
       sodipodi:cy="315.21933"
       sodipodi:cx="-1062.8572"
       id="use4322"
       style="fill:#ff0000;fill-opacity:1;fill-rule:nonzero;stroke:none"
       sodipodi:type="arc"
       transform="matrix(0.39745215,0,0,0.39745215,732.07142,332.69331)" />
    <path
       d="m -1031.4286,315.21933 c 0,17.35752 -14.0711,31.42857 -31.4286,31.42857 -17.3575,0 -31.4285,-14.07105 -31.4285,-31.42857 0,-17.35752 14.071,-31.42857 31.4285,-31.42857 17.3575,0 31.4286,14.07105 31.4286,31.42857 z"
       sodipodi:ry="31.428572"
       sodipodi:rx="31.428572"
       sodipodi:cy="315.21933"
       sodipodi:cx="-1062.8572"
       id="use4324"
       style="fill:#ff0000;fill-opacity:1;fill-rule:nonzero;stroke:none"
       sodipodi:type="arc"
       transform="matrix(0.27204944,0,0,0.27204944,646.26429,361.89675)" />
    <path
       d="m -1031.4286,315.21933 c 0,17.35752 -14.0711,31.42857 -31.4286,31.42857 -17.3575,0 -31.4285,-14.07105 -31.4285,-31.42857 0,-17.35752 14.071,-31.42857 31.4285,-31.42857 17.3575,0 31.4286,14.07105 31.4286,31.42857 z"
       sodipodi:ry="31.428572"
       sodipodi:rx="31.428572"
       sodipodi:cy="315.21933"
       sodipodi:cx="-1062.8572"
       id="use4326"
       style="fill:#ff2a2a;fill-opacity:1;fill-rule:nonzero;stroke:none"
       sodipodi:type="arc"
       transform="matrix(0.35539025,0,0,0.35539025,751.93927,326.24743)" />
    <path
       d="m -1031.4286,315.21933 c 0,17.35752 -14.0711,31.42857 -31.4286,31.42857 -17.3575,0 -31.4285,-14.07105 -31.4285,-31.42857 0,-17.35752 14.071,-31.42857 31.4285,-31.42857 17.3575,0 31.4286,14.07105 31.4286,31.42857 z"
       sodipodi:ry="31.428572"
       sodipodi:rx="31.428572"
       sodipodi:cy="315.21933"
       sodipodi:cx="-1062.8572"
       id="use4328"
       style="fill:#ff0000;fill-opacity:1;fill-rule:nonzero;stroke:none"
       sodipodi:type="arc"
       transform="matrix(0.3444863,0,0,0.3444863,768.55677,388.60656)" />
    <path
       d="m -1031.4286,315.21933 c 0,17.35752 -14.0711,31.42857 -31.4286,31.42857 -17.3575,0 -31.4285,-14.07105 -31.4285,-31.42857 0,-17.35752 14.071,-31.42857 31.4285,-31.42857 17.3575,0 31.4286,14.07105 31.4286,31.42857 z"
       sodipodi:ry="31.428572"
       sodipodi:rx="31.428572"
       sodipodi:cy="315.21933"
       sodipodi:cx="-1062.8572"
       id="use4330"
       style="fill:#ff0000;fill-opacity:1;fill-rule:nonzero;stroke:none"
       sodipodi:type="arc"
       transform="matrix(0.34948393,0,0,0.34948393,754.82954,353.70249)" />
    <path
       d="m -1031.4286,315.21933 c 0,17.35752 -14.0711,31.42857 -31.4286,31.42857 -17.3575,0 -31.4285,-14.07105 -31.4285,-31.42857 0,-17.35752 14.071,-31.42857 31.4285,-31.42857 17.3575,0 31.4286,14.07105 31.4286,31.42857 z"
       sodipodi:ry="31.428572"
       sodipodi:rx="31.428572"
       sodipodi:cy="315.21933"
       sodipodi:cx="-1062.8572"
       id="use4332"
       style="fill:#ff0000;fill-opacity:1;fill-rule:nonzero;stroke:none"
       sodipodi:type="arc"
       transform="matrix(0.23877444,0,0,0.23877444,675.58674,375.45239)" />
    <path
       d="m -1031.4286,315.21933 c 0,17.35752 -14.0711,31.42857 -31.4286,31.42857 -17.3575,0 -31.4285,-14.07105 -31.4285,-31.42857 0,-17.35752 14.071,-31.42857 31.4285,-31.42857 17.3575,0 31.4286,14.07105 31.4286,31.42857 z"
       sodipodi:ry="31.428572"
       sodipodi:rx="31.428572"
       sodipodi:cy="315.21933"
       sodipodi:cx="-1062.8572"
       id="use4334"
       style="fill:#ff0000;fill-opacity:1;fill-rule:nonzero;stroke:none"
       sodipodi:type="arc"
       transform="matrix(0.42399349,0,0,0.42399349,854.46199,251.40227)" />
    <path
       d="m -1031.4286,315.21933 c 0,17.35752 -14.0711,31.42857 -31.4286,31.42857 -17.3575,0 -31.4285,-14.07105 -31.4285,-31.42857 0,-17.35752 14.071,-31.42857 31.4285,-31.42857 17.3575,0 31.4286,14.07105 31.4286,31.42857 z"
       sodipodi:ry="31.428572"
       sodipodi:rx="31.428572"
       sodipodi:cy="315.21933"
       sodipodi:cx="-1062.8572"
       id="use4338"
       style="fill:#ff0000;fill-opacity:1;fill-rule:nonzero;stroke:none"
       sodipodi:type="arc"
       transform="matrix(0.31531369,0,0,0.31531369,743.17035,423.98043)" />
    <path
       d="m -1031.4286,315.21933 c 0,17.35752 -14.0711,31.42857 -31.4286,31.42857 -17.3575,0 -31.4285,-14.07105 -31.4285,-31.42857 0,-17.35752 14.071,-31.42857 31.4285,-31.42857 17.3575,0 31.4286,14.07105 31.4286,31.42857 z"
       sodipodi:ry="31.428572"
       sodipodi:rx="31.428572"
       sodipodi:cy="315.21933"
       sodipodi:cx="-1062.8572"
       id="use4342"
       style="fill:#ff0000;fill-opacity:1;fill-rule:nonzero;stroke:none"
       sodipodi:type="arc"
       transform="matrix(0.36947173,0,0,0.36947173,720.00064,406.73484)" />
    <path
       d="m -1031.4286,315.21933 c 0,17.35752 -14.0711,31.42857 -31.4286,31.42857 -17.3575,0 -31.4285,-14.07105 -31.4285,-31.42857 0,-17.35752 14.071,-31.42857 31.4285,-31.42857 17.3575,0 31.4286,14.07105 31.4286,31.42857 z"
       sodipodi:ry="31.428572"
       sodipodi:rx="31.428572"
       sodipodi:cy="315.21933"
       sodipodi:cx="-1062.8572"
       id="use4344"
       style="fill:#ff0000;fill-opacity:1;fill-rule:nonzero;stroke:none"
       sodipodi:type="arc"
       transform="matrix(0.52665337,0,0,0.52665337,855.7377,388.39836)" />
    <path
       d="m -1031.4286,315.21933 c 0,17.35752 -14.0711,31.42857 -31.4286,31.42857 -17.3575,0 -31.4285,-14.07105 -31.4285,-31.42857 0,-17.35752 14.071,-31.42857 31.4285,-31.42857 17.3575,0 31.4286,14.07105 31.4286,31.42857 z"
       sodipodi:ry="31.428572"
       sodipodi:rx="31.428572"
       sodipodi:cy="315.21933"
       sodipodi:cx="-1062.8572"
       id="use4346"
       style="fill:#ff0000;fill-opacity:1;fill-rule:nonzero;stroke:none"
       sodipodi:type="arc"
       transform="matrix(0.55955442,0,0,0.55955442,862.80815,303.54516)" />
    <path
       d="m -1031.4286,315.21933 c 0,17.35752 -14.0711,31.42857 -31.4286,31.42857 -17.3575,0 -31.4285,-14.07105 -31.4285,-31.42857 0,-17.35752 14.071,-31.42857 31.4285,-31.42857 17.3575,0 31.4286,14.07105 31.4286,31.42857 z"
       sodipodi:ry="31.428572"
       sodipodi:rx="31.428572"
       sodipodi:cy="315.21933"
       sodipodi:cx="-1062.8572"
       id="use4348"
       style="fill:#ff0000;fill-opacity:1;fill-rule:nonzero;stroke:none"
       sodipodi:type="arc"
       transform="matrix(0.28966262,0,0,0.28966262,586.67776,408.04366)" />
    <path
       d="m -1031.4286,315.21933 c 0,17.35752 -14.0711,31.42857 -31.4286,31.42857 -17.3575,0 -31.4285,-14.07105 -31.4285,-31.42857 0,-17.35752 14.071,-31.42857 31.4285,-31.42857 17.3575,0 31.4286,14.07105 31.4286,31.42857 z"
       sodipodi:ry="31.428572"
       sodipodi:rx="31.428572"
       sodipodi:cy="315.21933"
       sodipodi:cx="-1062.8572"
       id="use4350"
       style="fill:#ff0000;fill-opacity:1;fill-rule:nonzero;stroke:none"
       sodipodi:type="arc"
       transform="matrix(0.54214658,0,0,0.54214658,871.91061,298.71842)" />
    <path
       d="m -1031.4286,315.21933 c 0,17.35752 -14.0711,31.42857 -31.4286,31.42857 -17.3575,0 -31.4285,-14.07105 -31.4285,-31.42857 0,-17.35752 14.071,-31.42857 31.4285,-31.42857 17.3575,0 31.4286,14.07105 31.4286,31.42857 z"
       sodipodi:ry="31.428572"
       sodipodi:rx="31.428572"
       sodipodi:cy="315.21933"
       sodipodi:cx="-1062.8572"
       id="use4352"
       style="fill:#aa0000;fill-opacity:1;fill-rule:nonzero;stroke:none"
       sodipodi:type="arc"
       transform="matrix(0.42052434,0,0,0.42052434,713.02859,334.66224)" />
    <path
       d="m -1031.4286,315.21933 c 0,17.35752 -14.0711,31.42857 -31.4286,31.42857 -17.3575,0 -31.4285,-14.07105 -31.4285,-31.42857 0,-17.35752 14.071,-31.42857 31.4285,-31.42857 17.3575,0 31.4286,14.07105 31.4286,31.42857 z"
       sodipodi:ry="31.428572"
       sodipodi:rx="31.428572"
       sodipodi:cy="315.21933"
       sodipodi:cx="-1062.8572"
       id="use4354"
       style="fill:#ff0000;fill-opacity:1;fill-rule:nonzero;stroke:none"
       sodipodi:type="arc"
       transform="matrix(0.37910406,0,0,0.37910406,699.09876,424.62654)" />
    <path
       d="m -1031.4286,315.21933 c 0,17.35752 -14.0711,31.42857 -31.4286,31.42857 -17.3575,0 -31.4285,-14.07105 -31.4285,-31.42857 0,-17.35752 14.071,-31.42857 31.4285,-31.42857 17.3575,0 31.4286,14.07105 31.4286,31.42857 z"
       sodipodi:ry="31.428572"
       sodipodi:rx="31.428572"
       sodipodi:cy="315.21933"
       sodipodi:cx="-1062.8572"
       id="use4356"
       style="fill:#ff0000;fill-opacity:1;fill-rule:nonzero;stroke:none"
       sodipodi:type="arc"
       transform="matrix(0.22630698,0,0,0.22630698,489.72394,416.21955)" />
    <path
       d="m -1031.4286,315.21933 c 0,17.35752 -14.0711,31.42857 -31.4286,31.42857 -17.3575,0 -31.4285,-14.07105 -31.4285,-31.42857 0,-17.35752 14.071,-31.42857 31.4285,-31.42857 17.3575,0 31.4286,14.07105 31.4286,31.42857 z"
       sodipodi:ry="31.428572"
       sodipodi:rx="31.428572"
       sodipodi:cy="315.21933"
       sodipodi:cx="-1062.8572"
       id="use4358"
       style="fill:#ff0000;fill-opacity:1;fill-rule:nonzero;stroke:none"
       sodipodi:type="arc"
       transform="matrix(0.29274732,0,0,0.29274732,551.66855,382.37253)" />
    <path
       d="m -1031.4286,315.21933 c 0,17.35752 -14.0711,31.42857 -31.4286,31.42857 -17.3575,0 -31.4285,-14.07105 -31.4285,-31.42857 0,-17.35752 14.071,-31.42857 31.4285,-31.42857 17.3575,0 31.4286,14.07105 31.4286,31.42857 z"
       sodipodi:ry="31.428572"
       sodipodi:rx="31.428572"
       sodipodi:cy="315.21933"
       sodipodi:cx="-1062.8572"
       id="use4360"
       style="fill:#ff0000;fill-opacity:1;fill-rule:nonzero;stroke:none"
       sodipodi:type="arc"
       transform="matrix(0.51684358,0,0,0.51684358,744.53245,305.01909)" />
    <path
       d="m -1031.4286,315.21933 c 0,17.35752 -14.0711,31.42857 -31.4286,31.42857 -17.3575,0 -31.4285,-14.07105 -31.4285,-31.42857 0,-17.35752 14.071,-31.42857 31.4285,-31.42857 17.3575,0 31.4286,14.07105 31.4286,31.42857 z"
       sodipodi:ry="31.428572"
       sodipodi:rx="31.428572"
       sodipodi:cy="315.21933"
       sodipodi:cx="-1062.8572"
       id="use4364"
       style="fill:#ff0000;fill-opacity:1;fill-rule:nonzero;stroke:none"
       sodipodi:type="arc"
       transform="matrix(0.35433828,0,0,0.35433828,589.59711,356.79774)" />
    <path
       d="m -1031.4286,315.21933 c 0,17.35752 -14.0711,31.42857 -31.4286,31.42857 -17.3575,0 -31.4285,-14.07105 -31.4285,-31.42857 0,-17.35752 14.071,-31.42857 31.4285,-31.42857 17.3575,0 31.4286,14.07105 31.4286,31.42857 z"
       sodipodi:ry="31.428572"
       sodipodi:rx="31.428572"
       sodipodi:cy="315.21933"
       sodipodi:cx="-1062.8572"
       id="use4366"
       style="fill:#ff0000;fill-opacity:1;fill-rule:nonzero;stroke:none"
       sodipodi:type="arc"
       transform="matrix(0.32721693,0,0,0.32721693,582.92941,354.00014)" />
    <path
       d="m -1031.4286,315.21933 c 0,17.35752 -14.0711,31.42857 -31.4286,31.42857 -17.3575,0 -31.4285,-14.07105 -31.4285,-31.42857 0,-17.35752 14.071,-31.42857 31.4285,-31.42857 17.3575,0 31.4286,14.07105 31.4286,31.42857 z"
       sodipodi:ry="31.428572"
       sodipodi:rx="31.428572"
       sodipodi:cy="315.21933"
       sodipodi:cx="-1062.8572"
       id="use4368"
       style="fill:#ff0000;fill-opacity:1;fill-rule:nonzero;stroke:none"
       sodipodi:type="arc"
       transform="matrix(0.49705555,0,0,0.49705555,729.05673,283.67786)" />
    <path
       d="m -1031.4286,315.21933 c 0,17.35752 -14.0711,31.42857 -31.4286,31.42857 -17.3575,0 -31.4285,-14.07105 -31.4285,-31.42857 0,-17.35752 14.071,-31.42857 31.4285,-31.42857 17.3575,0 31.4286,14.07105 31.4286,31.42857 z"
       sodipodi:ry="31.428572"
       sodipodi:rx="31.428572"
       sodipodi:cy="315.21933"
       sodipodi:cx="-1062.8572"
       id="use4370"
       style="fill:#800000;fill-opacity:1;fill-rule:nonzero;stroke:none"
       sodipodi:type="arc"
       transform="matrix(0.33095899,0,0,0.33095899,543.08569,352.8222)" />
    <path
       d="m -1031.4286,315.21933 c 0,17.35752 -14.0711,31.42857 -31.4286,31.42857 -17.3575,0 -31.4285,-14.07105 -31.4285,-31.42857 0,-17.35752 14.071,-31.42857 31.4285,-31.42857 17.3575,0 31.4286,14.07105 31.4286,31.42857 z"
       sodipodi:ry="31.428572"
       sodipodi:rx="31.428572"
       sodipodi:cy="315.21933"
       sodipodi:cx="-1062.8572"
       id="use4372"
       style="fill:#800000;fill-opacity:1;fill-rule:nonzero;stroke:none"
       sodipodi:type="arc"
       transform="matrix(0.24176381,0,0,0.24176381,469.17989,335.05287)" />
    <path
       d="m -1031.4286,315.21933 c 0,17.35752 -14.0711,31.42857 -31.4286,31.42857 -17.3575,0 -31.4285,-14.07105 -31.4285,-31.42857 0,-17.35752 14.071,-31.42857 31.4285,-31.42857 17.3575,0 31.4286,14.07105 31.4286,31.42857 z"
       sodipodi:ry="31.428572"
       sodipodi:rx="31.428572"
       sodipodi:cy="315.21933"
       sodipodi:cx="-1062.8572"
       id="use4374"
       style="fill:#ff0000;fill-opacity:1;fill-rule:nonzero;stroke:none"
       sodipodi:type="arc"
       transform="matrix(0.25223599,0,0,0.25223599,541.77247,361.76714)" />
    <path
       d="m -1031.4286,315.21933 c 0,17.35752 -14.0711,31.42857 -31.4286,31.42857 -17.3575,0 -31.4285,-14.07105 -31.4285,-31.42857 0,-17.35752 14.071,-31.42857 31.4285,-31.42857 17.3575,0 31.4286,14.07105 31.4286,31.42857 z"
       sodipodi:ry="31.428572"
       sodipodi:rx="31.428572"
       sodipodi:cy="315.21933"
       sodipodi:cx="-1062.8572"
       id="use4376"
       style="fill:#ff0000;fill-opacity:1;fill-rule:nonzero;stroke:none"
       sodipodi:type="arc"
       transform="matrix(0.41794164,0,0,0.41794164,674.0598,342.69892)" />
    <path
       d="m -1031.4286,315.21933 c 0,17.35752 -14.0711,31.42857 -31.4286,31.42857 -17.3575,0 -31.4285,-14.07105 -31.4285,-31.42857 0,-17.35752 14.071,-31.42857 31.4285,-31.42857 17.3575,0 31.4286,14.07105 31.4286,31.42857 z"
       sodipodi:ry="31.428572"
       sodipodi:rx="31.428572"
       sodipodi:cy="315.21933"
       sodipodi:cx="-1062.8572"
       id="use4378"
       style="fill:#ff0000;fill-opacity:1;fill-rule:nonzero;stroke:none"
       sodipodi:type="arc"
       transform="matrix(0.45747293,0,0,0.45747293,752.55393,289.34135)" />
    <path
       d="m -1031.4286,315.21933 c 0,17.35752 -14.0711,31.42857 -31.4286,31.42857 -17.3575,0 -31.4285,-14.07105 -31.4285,-31.42857 0,-17.35752 14.071,-31.42857 31.4285,-31.42857 17.3575,0 31.4286,14.07105 31.4286,31.42857 z"
       sodipodi:ry="31.428572"
       sodipodi:rx="31.428572"
       sodipodi:cy="315.21933"
       sodipodi:cx="-1062.8572"
       id="use4380"
       style="fill:#ff8080;fill-opacity:1;fill-rule:nonzero;stroke:none"
       sodipodi:type="arc"
       transform="matrix(0.43589416,0,0,0.43589416,747.60525,287.59732)" />
    <path
       d="m -1031.4286,315.21933 c 0,17.35752 -14.0711,31.42857 -31.4286,31.42857 -17.3575,0 -31.4285,-14.07105 -31.4285,-31.42857 0,-17.35752 14.071,-31.42857 31.4285,-31.42857 17.3575,0 31.4286,14.07105 31.4286,31.42857 z"
       sodipodi:ry="31.428572"
       sodipodi:rx="31.428572"
       sodipodi:cy="315.21933"
       sodipodi:cx="-1062.8572"
       id="use4382"
       style="fill:#ff0000;fill-opacity:1;fill-rule:nonzero;stroke:none"
       sodipodi:type="arc"
       transform="matrix(0.47793274,0,0,0.47793274,760.76997,281.83553)" />
    <path
       d="m -1031.4286,315.21933 c 0,17.35752 -14.0711,31.42857 -31.4286,31.42857 -17.3575,0 -31.4285,-14.07105 -31.4285,-31.42857 0,-17.35752 14.071,-31.42857 31.4285,-31.42857 17.3575,0 31.4286,14.07105 31.4286,31.42857 z"
       sodipodi:ry="31.428572"
       sodipodi:rx="31.428572"
       sodipodi:cy="315.21933"
       sodipodi:cx="-1062.8572"
       id="use4384"
       style="fill:#ff0000;fill-opacity:1;fill-rule:nonzero;stroke:none"
       sodipodi:type="arc"
       transform="matrix(0.32538193,0,0,0.32538193,576.43092,330.74591)" />
    <path
       d="m -1031.4286,315.21933 c 0,17.35752 -14.0711,31.42857 -31.4286,31.42857 -17.3575,0 -31.4285,-14.07105 -31.4285,-31.42857 0,-17.35752 14.071,-31.42857 31.4285,-31.42857 17.3575,0 31.4286,14.07105 31.4286,31.42857 z"
       sodipodi:ry="31.428572"
       sodipodi:rx="31.428572"
       sodipodi:cy="315.21933"
       sodipodi:cx="-1062.8572"
       id="use4386"
       style="fill:#ff8080;fill-opacity:1;fill-rule:nonzero;stroke:none"
       sodipodi:type="arc"
       transform="matrix(0.68990824,0,0,0.68990824,970.95238,210.89203)" />
    <path
       d="m -1031.4286,315.21933 c 0,17.35752 -14.0711,31.42857 -31.4286,31.42857 -17.3575,0 -31.4285,-14.07105 -31.4285,-31.42857 0,-17.35752 14.071,-31.42857 31.4285,-31.42857 17.3575,0 31.4286,14.07105 31.4286,31.42857 z"
       sodipodi:ry="31.428572"
       sodipodi:rx="31.428572"
       sodipodi:cy="315.21933"
       sodipodi:cx="-1062.8572"
       id="use4388"
       style="fill:#ff0000;fill-opacity:1;fill-rule:nonzero;stroke:none"
       sodipodi:type="arc"
       transform="matrix(0.31954635,0,0,0.31954635,560.4231,329.17494)" />
    <path
       d="m -1031.4286,315.21933 c 0,17.35752 -14.0711,31.42857 -31.4286,31.42857 -17.3575,0 -31.4285,-14.07105 -31.4285,-31.42857 0,-17.35752 14.071,-31.42857 31.4285,-31.42857 17.3575,0 31.4286,14.07105 31.4286,31.42857 z"
       sodipodi:ry="31.428572"
       sodipodi:rx="31.428572"
       sodipodi:cy="315.21933"
       sodipodi:cx="-1062.8572"
       id="use4392"
       style="fill:#ff5555;fill-opacity:1;fill-rule:nonzero;stroke:none"
       sodipodi:type="arc"
       transform="matrix(0.64478388,0,0,0.64478388,929.61722,251.75689)" />
    <path
       d="m -1031.4286,315.21933 c 0,17.35752 -14.0711,31.42857 -31.4286,31.42857 -17.3575,0 -31.4285,-14.07105 -31.4285,-31.42857 0,-17.35752 14.071,-31.42857 31.4285,-31.42857 17.3575,0 31.4286,14.07105 31.4286,31.42857 z"
       sodipodi:ry="31.428572"
       sodipodi:rx="31.428572"
       sodipodi:cy="315.21933"
       sodipodi:cx="-1062.8572"
       id="use4394"
       style="fill:#ff2a2a;fill-opacity:1;fill-rule:nonzero;stroke:none"
       sodipodi:type="arc"
       transform="matrix(0.41448421,0,0,0.41448421,671.33082,307.07494)" />
    <path
       d="m -1031.4286,315.21933 c 0,17.35752 -14.0711,31.42857 -31.4286,31.42857 -17.3575,0 -31.4285,-14.07105 -31.4285,-31.42857 0,-17.35752 14.071,-31.42857 31.4285,-31.42857 17.3575,0 31.4286,14.07105 31.4286,31.42857 z"
       sodipodi:ry="31.428572"
       sodipodi:rx="31.428572"
       sodipodi:cy="315.21933"
       sodipodi:cx="-1062.8572"
       id="use4396"
       style="fill:#ff0000;fill-opacity:1;fill-rule:nonzero;stroke:none"
       sodipodi:type="arc"
       transform="matrix(0.37875287,0,0,0.37875287,644.16726,361.97259)" />
    <path
       d="m -1031.4286,315.21933 c 0,17.35752 -14.0711,31.42857 -31.4286,31.42857 -17.3575,0 -31.4285,-14.07105 -31.4285,-31.42857 0,-17.35752 14.071,-31.42857 31.4285,-31.42857 17.3575,0 31.4286,14.07105 31.4286,31.42857 z"
       sodipodi:ry="31.428572"
       sodipodi:rx="31.428572"
       sodipodi:cy="315.21933"
       sodipodi:cx="-1062.8572"
       id="use4400"
       style="fill:#ff0000;fill-opacity:1;fill-rule:nonzero;stroke:none"
       sodipodi:type="arc"
       transform="matrix(0.25896894,0,0,0.25896894,482.14639,390.76789)" />
    <path
       d="m -1031.4286,315.21933 c 0,17.35752 -14.0711,31.42857 -31.4286,31.42857 -17.3575,0 -31.4285,-14.07105 -31.4285,-31.42857 0,-17.35752 14.071,-31.42857 31.4285,-31.42857 17.3575,0 31.4286,14.07105 31.4286,31.42857 z"
       sodipodi:ry="31.428572"
       sodipodi:rx="31.428572"
       sodipodi:cy="315.21933"
       sodipodi:cx="-1062.8572"
       id="use4402"
       style="fill:#ff0000;fill-opacity:1;fill-rule:nonzero;stroke:none"
       sodipodi:type="arc"
       transform="matrix(0.25929711,0,0,0.25929711,519.82912,395.12139)" />
    <path
       d="m -1031.4286,315.21933 c 0,17.35752 -14.0711,31.42857 -31.4286,31.42857 -17.3575,0 -31.4285,-14.07105 -31.4285,-31.42857 0,-17.35752 14.071,-31.42857 31.4285,-31.42857 17.3575,0 31.4286,14.07105 31.4286,31.42857 z"
       sodipodi:ry="31.428572"
       sodipodi:rx="31.428572"
       sodipodi:cy="315.21933"
       sodipodi:cx="-1062.8572"
       id="use4404"
       style="fill:#ff0000;fill-opacity:1;fill-rule:nonzero;stroke:none"
       sodipodi:type="arc"
       transform="matrix(0.24099527,0,0,0.24099527,469.31846,445.84968)" />
    <path
       d="m -1031.4286,315.21933 c 0,17.35752 -14.0711,31.42857 -31.4286,31.42857 -17.3575,0 -31.4285,-14.07105 -31.4285,-31.42857 0,-17.35752 14.071,-31.42857 31.4285,-31.42857 17.3575,0 31.4286,14.07105 31.4286,31.42857 z"
       sodipodi:ry="31.428572"
       sodipodi:rx="31.428572"
       sodipodi:cy="315.21933"
       sodipodi:cx="-1062.8572"
       id="use4408"
       style="fill:#ff8080;fill-opacity:1;fill-rule:nonzero;stroke:none"
       sodipodi:type="arc"
       transform="matrix(0.65112946,0,0,0.65112946,959.24632,330.17659)" />
    <path
       d="m -1031.4286,315.21933 c 0,17.35752 -14.0711,31.42857 -31.4286,31.42857 -17.3575,0 -31.4285,-14.07105 -31.4285,-31.42857 0,-17.35752 14.071,-31.42857 31.4285,-31.42857 17.3575,0 31.4286,14.07105 31.4286,31.42857 z"
       sodipodi:ry="31.428572"
       sodipodi:rx="31.428572"
       sodipodi:cy="315.21933"
       sodipodi:cx="-1062.8572"
       id="use4410"
       style="fill:#ff0000;fill-opacity:1;fill-rule:nonzero;stroke:none"
       sodipodi:type="arc"
       transform="matrix(0.43552472,0,0,0.43552472,769.12153,349.90005)" />
    <path
       d="m -1031.4286,315.21933 c 0,17.35752 -14.0711,31.42857 -31.4286,31.42857 -17.3575,0 -31.4285,-14.07105 -31.4285,-31.42857 0,-17.35752 14.071,-31.42857 31.4285,-31.42857 17.3575,0 31.4286,14.07105 31.4286,31.42857 z"
       sodipodi:ry="31.428572"
       sodipodi:rx="31.428572"
       sodipodi:cy="315.21933"
       sodipodi:cx="-1062.8572"
       id="use4412"
       style="fill:#ff0000;fill-opacity:1;fill-rule:nonzero;stroke:none"
       sodipodi:type="arc"
       transform="matrix(0.49876594,0,0,0.49876594,842.66465,368.03948)" />
    <path
       d="m -1031.4286,315.21933 c 0,17.35752 -14.0711,31.42857 -31.4286,31.42857 -17.3575,0 -31.4285,-14.07105 -31.4285,-31.42857 0,-17.35752 14.071,-31.42857 31.4285,-31.42857 17.3575,0 31.4286,14.07105 31.4286,31.42857 z"
       sodipodi:ry="31.428572"
       sodipodi:rx="31.428572"
       sodipodi:cy="315.21933"
       sodipodi:cx="-1062.8572"
       id="use4414"
       style="fill:#ff0000;fill-opacity:1;fill-rule:nonzero;stroke:none"
       sodipodi:type="arc"
       transform="matrix(0.35403039,0,0,0.35403039,687.37447,411.45051)" />
    <path
       d="m -1031.4286,315.21933 c 0,17.35752 -14.0711,31.42857 -31.4286,31.42857 -17.3575,0 -31.4285,-14.07105 -31.4285,-31.42857 0,-17.35752 14.071,-31.42857 31.4285,-31.42857 17.3575,0 31.4286,14.07105 31.4286,31.42857 z"
       sodipodi:ry="31.428572"
       sodipodi:rx="31.428572"
       sodipodi:cy="315.21933"
       sodipodi:cx="-1062.8572"
       id="use4416"
       style="fill:#ff0000;fill-opacity:1;fill-rule:nonzero;stroke:none"
       sodipodi:type="arc"
       transform="matrix(0.51229417,0,0,0.51229417,889.10089,386.58435)" />
    <path
       d="m -1031.4286,315.21933 c 0,17.35752 -14.0711,31.42857 -31.4286,31.42857 -17.3575,0 -31.4285,-14.07105 -31.4285,-31.42857 0,-17.35752 14.071,-31.42857 31.4285,-31.42857 17.3575,0 31.4286,14.07105 31.4286,31.42857 z"
       sodipodi:ry="31.428572"
       sodipodi:rx="31.428572"
       sodipodi:cy="315.21933"
       sodipodi:cx="-1062.8572"
       id="use4418"
       style="fill:#ff0000;fill-opacity:1;fill-rule:nonzero;stroke:none"
       sodipodi:type="arc"
       transform="matrix(0.31424143,0,0,0.31424143,639.8626,403.70301)" />
    <path
       d="m -1031.4286,315.21933 c 0,17.35752 -14.0711,31.42857 -31.4286,31.42857 -17.3575,0 -31.4285,-14.07105 -31.4285,-31.42857 0,-17.35752 14.071,-31.42857 31.4285,-31.42857 17.3575,0 31.4286,14.07105 31.4286,31.42857 z"
       sodipodi:ry="31.428572"
       sodipodi:rx="31.428572"
       sodipodi:cy="315.21933"
       sodipodi:cx="-1062.8572"
       id="use4420"
       style="fill:#ff0000;fill-opacity:1;fill-rule:nonzero;stroke:none"
       sodipodi:type="arc"
       transform="matrix(0.57399483,0,0,0.57399483,866.34996,306.31255)" />
    <path
       d="m -1031.4286,315.21933 c 0,17.35752 -14.0711,31.42857 -31.4286,31.42857 -17.3575,0 -31.4285,-14.07105 -31.4285,-31.42857 0,-17.35752 14.071,-31.42857 31.4285,-31.42857 17.3575,0 31.4286,14.07105 31.4286,31.42857 z"
       sodipodi:ry="31.428572"
       sodipodi:rx="31.428572"
       sodipodi:cy="315.21933"
       sodipodi:cx="-1062.8572"
       id="use4422"
       style="fill:#ff0000;fill-opacity:1;fill-rule:nonzero;stroke:none"
       sodipodi:type="arc"
       transform="matrix(0.38641816,0,0,0.38641816,709.53867,351.03391)" />
    <path
       d="m -1031.4286,315.21933 c 0,17.35752 -14.0711,31.42857 -31.4286,31.42857 -17.3575,0 -31.4285,-14.07105 -31.4285,-31.42857 0,-17.35752 14.071,-31.42857 31.4285,-31.42857 17.3575,0 31.4286,14.07105 31.4286,31.42857 z"
       sodipodi:ry="31.428572"
       sodipodi:rx="31.428572"
       sodipodi:cy="315.21933"
       sodipodi:cx="-1062.8572"
       id="use4426"
       style="fill:#aa0000;fill-opacity:1;fill-rule:nonzero;stroke:none"
       sodipodi:type="arc"
       transform="matrix(0.66700871,0,0,0.66700871,993.43951,303.64792)" />
    <path
       d="m -1031.4286,315.21933 c 0,17.35752 -14.0711,31.42857 -31.4286,31.42857 -17.3575,0 -31.4285,-14.07105 -31.4285,-31.42857 0,-17.35752 14.071,-31.42857 31.4285,-31.42857 17.3575,0 31.4286,14.07105 31.4286,31.42857 z"
       sodipodi:ry="31.428572"
       sodipodi:rx="31.428572"
       sodipodi:cy="315.21933"
       sodipodi:cx="-1062.8572"
       id="use4428"
       style="fill:#ff0000;fill-opacity:1;fill-rule:nonzero;stroke:none"
       sodipodi:type="arc"
       transform="matrix(0.24494656,0,0,0.24494656,589.76478,397.20429)" />
    <path
       d="m -1031.4286,315.21933 c 0,17.35752 -14.0711,31.42857 -31.4286,31.42857 -17.3575,0 -31.4285,-14.07105 -31.4285,-31.42857 0,-17.35752 14.071,-31.42857 31.4285,-31.42857 17.3575,0 31.4286,14.07105 31.4286,31.42857 z"
       sodipodi:ry="31.428572"
       sodipodi:rx="31.428572"
       sodipodi:cy="315.21933"
       sodipodi:cx="-1062.8572"
       id="use4430"
       style="fill:#ff0000;fill-opacity:1;fill-rule:nonzero;stroke:none"
       sodipodi:type="arc"
       transform="matrix(0.24229881,0,0,0.24229881,616.84475,340.51264)" />
    <path
       d="m -1031.4286,315.21933 c 0,17.35752 -14.0711,31.42857 -31.4286,31.42857 -17.3575,0 -31.4285,-14.07105 -31.4285,-31.42857 0,-17.35752 14.071,-31.42857 31.4285,-31.42857 17.3575,0 31.4286,14.07105 31.4286,31.42857 z"
       sodipodi:ry="31.428572"
       sodipodi:rx="31.428572"
       sodipodi:cy="315.21933"
       sodipodi:cx="-1062.8572"
       id="use4432"
       style="fill:#ff0000;fill-opacity:1;fill-rule:nonzero;stroke:none"
       sodipodi:type="arc"
       transform="matrix(0.4721966,0,0,0.4721966,851.8033,316.9384)" />
    <path
       d="m -1031.4286,315.21933 c 0,17.35752 -14.0711,31.42857 -31.4286,31.42857 -17.3575,0 -31.4285,-14.07105 -31.4285,-31.42857 0,-17.35752 14.071,-31.42857 31.4285,-31.42857 17.3575,0 31.4286,14.07105 31.4286,31.42857 z"
       sodipodi:ry="31.428572"
       sodipodi:rx="31.428572"
       sodipodi:cy="315.21933"
       sodipodi:cx="-1062.8572"
       id="use4434"
       style="fill:#ff0000;fill-opacity:1;fill-rule:nonzero;stroke:none"
       sodipodi:type="arc"
       transform="matrix(0.37553276,0,0,0.37553276,747.44074,359.11652)" />
    <path
       d="m -1031.4286,315.21933 c 0,17.35752 -14.0711,31.42857 -31.4286,31.42857 -17.3575,0 -31.4285,-14.07105 -31.4285,-31.42857 0,-17.35752 14.071,-31.42857 31.4285,-31.42857 17.3575,0 31.4286,14.07105 31.4286,31.42857 z"
       sodipodi:ry="31.428572"
       sodipodi:rx="31.428572"
       sodipodi:cy="315.21933"
       sodipodi:cx="-1062.8572"
       id="use4436"
       style="fill:#d40000;fill-opacity:1;fill-rule:nonzero;stroke:none"
       sodipodi:type="arc"
       transform="matrix(0.49637056,0,0,0.49637056,857.03933,298.31128)" />
    <path
       d="m -1031.4286,315.21933 c 0,17.35752 -14.0711,31.42857 -31.4286,31.42857 -17.3575,0 -31.4285,-14.07105 -31.4285,-31.42857 0,-17.35752 14.071,-31.42857 31.4285,-31.42857 17.3575,0 31.4286,14.07105 31.4286,31.42857 z"
       sodipodi:ry="31.428572"
       sodipodi:rx="31.428572"
       sodipodi:cy="315.21933"
       sodipodi:cx="-1062.8572"
       id="use4438"
       style="fill:#ff0000;fill-opacity:1;fill-rule:nonzero;stroke:none"
       sodipodi:type="arc"
       transform="matrix(0.68020199,0,0,0.68020199,1098.3694,295.57674)" />
    <path
       d="m -1031.4286,315.21933 c 0,17.35752 -14.0711,31.42857 -31.4286,31.42857 -17.3575,0 -31.4285,-14.07105 -31.4285,-31.42857 0,-17.35752 14.071,-31.42857 31.4285,-31.42857 17.3575,0 31.4286,14.07105 31.4286,31.42857 z"
       sodipodi:ry="31.428572"
       sodipodi:rx="31.428572"
       sodipodi:cy="315.21933"
       sodipodi:cx="-1062.8572"
       id="use4440"
       style="fill:#ffaaaa;fill-opacity:1;fill-rule:nonzero;stroke:none"
       sodipodi:type="arc"
       transform="matrix(0.64479449,0,0,0.64479449,1066.1488,316.09556)" />
    <path
       d="m -1031.4286,315.21933 c 0,17.35752 -14.0711,31.42857 -31.4286,31.42857 -17.3575,0 -31.4285,-14.07105 -31.4285,-31.42857 0,-17.35752 14.071,-31.42857 31.4285,-31.42857 17.3575,0 31.4286,14.07105 31.4286,31.42857 z"
       sodipodi:ry="31.428572"
       sodipodi:rx="31.428572"
       sodipodi:cy="315.21933"
       sodipodi:cx="-1062.8572"
       id="use4442"
       style="fill:#ff0000;fill-opacity:1;fill-rule:nonzero;stroke:none"
       sodipodi:type="arc"
       transform="matrix(0.38467504,0,0,0.38467504,747.27152,379.83722)" />
    <path
       d="m -1031.4286,315.21933 c 0,17.35752 -14.0711,31.42857 -31.4286,31.42857 -17.3575,0 -31.4285,-14.07105 -31.4285,-31.42857 0,-17.35752 14.071,-31.42857 31.4285,-31.42857 17.3575,0 31.4286,14.07105 31.4286,31.42857 z"
       sodipodi:ry="31.428572"
       sodipodi:rx="31.428572"
       sodipodi:cy="315.21933"
       sodipodi:cx="-1062.8572"
       id="use4444"
       style="fill:#ff0000;fill-opacity:1;fill-rule:nonzero;stroke:none"
       sodipodi:type="arc"
       transform="matrix(0.39780241,0,0,0.39780241,852.68542,365.42297)" />
    <path
       d="m -1031.4286,315.21933 c 0,17.35752 -14.0711,31.42857 -31.4286,31.42857 -17.3575,0 -31.4285,-14.07105 -31.4285,-31.42857 0,-17.35752 14.071,-31.42857 31.4285,-31.42857 17.3575,0 31.4286,14.07105 31.4286,31.42857 z"
       sodipodi:ry="31.428572"
       sodipodi:rx="31.428572"
       sodipodi:cy="315.21933"
       sodipodi:cx="-1062.8572"
       id="use4446"
       style="fill:#d40000;fill-opacity:1;fill-rule:nonzero;stroke:none"
       sodipodi:type="arc"
       transform="matrix(0.69742265,0,0,0.69742265,1084.1642,295.29594)" />
    <path
       d="m -1031.4286,315.21933 c 0,17.35752 -14.0711,31.42857 -31.4286,31.42857 -17.3575,0 -31.4285,-14.07105 -31.4285,-31.42857 0,-17.35752 14.071,-31.42857 31.4285,-31.42857 17.3575,0 31.4286,14.07105 31.4286,31.42857 z"
       sodipodi:ry="31.428572"
       sodipodi:rx="31.428572"
       sodipodi:cy="315.21933"
       sodipodi:cx="-1062.8572"
       id="use4448"
       style="fill:#ff0000;fill-opacity:1;fill-rule:nonzero;stroke:none"
       sodipodi:type="arc"
       transform="matrix(0.22908623,0,0,0.22908623,642.00796,407.63889)" />
    <path
       d="m -1031.4286,315.21933 c 0,17.35752 -14.0711,31.42857 -31.4286,31.42857 -17.3575,0 -31.4285,-14.07105 -31.4285,-31.42857 0,-17.35752 14.071,-31.42857 31.4285,-31.42857 17.3575,0 31.4286,14.07105 31.4286,31.42857 z"
       sodipodi:ry="31.428572"
       sodipodi:rx="31.428572"
       sodipodi:cy="315.21933"
       sodipodi:cx="-1062.8572"
       id="use4450"
       style="fill:#ff0000;fill-opacity:1;fill-rule:nonzero;stroke:none"
       sodipodi:type="arc"
       transform="matrix(0.52720172,0,0,0.52720172,988.58956,292.15424)" />
    <path
       d="m -1031.4286,315.21933 c 0,17.35752 -14.0711,31.42857 -31.4286,31.42857 -17.3575,0 -31.4285,-14.07105 -31.4285,-31.42857 0,-17.35752 14.071,-31.42857 31.4285,-31.42857 17.3575,0 31.4286,14.07105 31.4286,31.42857 z"
       sodipodi:ry="31.428572"
       sodipodi:rx="31.428572"
       sodipodi:cy="315.21933"
       sodipodi:cx="-1062.8572"
       id="use4452"
       style="fill:#ff5555;fill-opacity:1;fill-rule:nonzero;stroke:none"
       sodipodi:type="arc"
       transform="matrix(0.38794545,0,0,0.38794545,833.5563,388.63078)" />
    <path
       d="m -1031.4286,315.21933 c 0,17.35752 -14.0711,31.42857 -31.4286,31.42857 -17.3575,0 -31.4285,-14.07105 -31.4285,-31.42857 0,-17.35752 14.071,-31.42857 31.4285,-31.42857 17.3575,0 31.4286,14.07105 31.4286,31.42857 z"
       sodipodi:ry="31.428572"
       sodipodi:rx="31.428572"
       sodipodi:cy="315.21933"
       sodipodi:cx="-1062.8572"
       id="use4456"
       style="fill:#ff0000;fill-opacity:1;fill-rule:nonzero;stroke:none"
       sodipodi:type="arc"
       transform="matrix(0.58348852,0,0,0.58348852,985.08285,293.68829)" />
    <path
       d="m -1031.4286,315.21933 c 0,17.35752 -14.0711,31.42857 -31.4286,31.42857 -17.3575,0 -31.4285,-14.07105 -31.4285,-31.42857 0,-17.35752 14.071,-31.42857 31.4285,-31.42857 17.3575,0 31.4286,14.07105 31.4286,31.42857 z"
       sodipodi:ry="31.428572"
       sodipodi:rx="31.428572"
       sodipodi:cy="315.21933"
       sodipodi:cx="-1062.8572"
       id="use4458"
       style="fill:#ff0000;fill-opacity:1;fill-rule:nonzero;stroke:none"
       sodipodi:type="arc"
       transform="matrix(0.3057153,0,0,0.3057153,742.46897,354.69492)" />
    <path
       d="m -1031.4286,315.21933 c 0,17.35752 -14.0711,31.42857 -31.4286,31.42857 -17.3575,0 -31.4285,-14.07105 -31.4285,-31.42857 0,-17.35752 14.071,-31.42857 31.4285,-31.42857 17.3575,0 31.4286,14.07105 31.4286,31.42857 z"
       sodipodi:ry="31.428572"
       sodipodi:rx="31.428572"
       sodipodi:cy="315.21933"
       sodipodi:cx="-1062.8572"
       id="use4462"
       style="fill:#ff0000;fill-opacity:1;fill-rule:nonzero;stroke:none"
       sodipodi:type="arc"
       transform="matrix(0.37670838,0,0,0.37670838,818.72971,337.77314)" />
    <path
       d="m -1031.4286,315.21933 c 0,17.35752 -14.0711,31.42857 -31.4286,31.42857 -17.3575,0 -31.4285,-14.07105 -31.4285,-31.42857 0,-17.35752 14.071,-31.42857 31.4285,-31.42857 17.3575,0 31.4286,14.07105 31.4286,31.42857 z"
       sodipodi:ry="31.428572"
       sodipodi:rx="31.428572"
       sodipodi:cy="315.21933"
       sodipodi:cx="-1062.8572"
       id="use4464"
       style="fill:#ff0000;fill-opacity:1;fill-rule:nonzero;stroke:none"
       sodipodi:type="arc"
       transform="matrix(0.32833041,0,0,0.32833041,703.46749,370.83264)" />
    <path
       d="m -1031.4286,315.21933 c 0,17.35752 -14.0711,31.42857 -31.4286,31.42857 -17.3575,0 -31.4285,-14.07105 -31.4285,-31.42857 0,-17.35752 14.071,-31.42857 31.4285,-31.42857 17.3575,0 31.4286,14.07105 31.4286,31.42857 z"
       sodipodi:ry="31.428572"
       sodipodi:rx="31.428572"
       sodipodi:cy="315.21933"
       sodipodi:cx="-1062.8572"
       id="use4466"
       style="fill:#ff0000;fill-opacity:1;fill-rule:nonzero;stroke:none"
       sodipodi:type="arc"
       transform="matrix(0.25017467,0,0,0.25017467,619.07222,408.78912)" />
    <path
       d="m -1031.4286,315.21933 c 0,17.35752 -14.0711,31.42857 -31.4286,31.42857 -17.3575,0 -31.4285,-14.07105 -31.4285,-31.42857 0,-17.35752 14.071,-31.42857 31.4285,-31.42857 17.3575,0 31.4286,14.07105 31.4286,31.42857 z"
       sodipodi:ry="31.428572"
       sodipodi:rx="31.428572"
       sodipodi:cy="315.21933"
       sodipodi:cx="-1062.8572"
       id="use4468"
       style="fill:#ff5555;fill-opacity:1;fill-rule:nonzero;stroke:none"
       sodipodi:type="arc"
       transform="matrix(0.69630422,0,0,0.69630422,1120.021,321.40211)" />
    <path
       d="m -1031.4286,315.21933 c 0,17.35752 -14.0711,31.42857 -31.4286,31.42857 -17.3575,0 -31.4285,-14.07105 -31.4285,-31.42857 0,-17.35752 14.071,-31.42857 31.4285,-31.42857 17.3575,0 31.4286,14.07105 31.4286,31.42857 z"
       sodipodi:ry="31.428572"
       sodipodi:rx="31.428572"
       sodipodi:cy="315.21933"
       sodipodi:cx="-1062.8572"
       id="use4470"
       style="fill:#ff2a2a;fill-opacity:1;fill-rule:nonzero;stroke:none"
       sodipodi:type="arc"
       transform="matrix(0.33112911,0,0,0.33112911,706.12826,408.40642)" />
    <path
       d="m -1031.4286,315.21933 c 0,17.35752 -14.0711,31.42857 -31.4286,31.42857 -17.3575,0 -31.4285,-14.07105 -31.4285,-31.42857 0,-17.35752 14.071,-31.42857 31.4285,-31.42857 17.3575,0 31.4286,14.07105 31.4286,31.42857 z"
       sodipodi:ry="31.428572"
       sodipodi:rx="31.428572"
       sodipodi:cy="315.21933"
       sodipodi:cx="-1062.8572"
       id="use4474"
       style="fill:#ff0000;fill-opacity:1;fill-rule:nonzero;stroke:none"
       sodipodi:type="arc"
       transform="matrix(0.7036709,0,0,0.7036709,1154.6448,215.36639)" />
    <path
       d="m -1031.4286,315.21933 c 0,17.35752 -14.0711,31.42857 -31.4286,31.42857 -17.3575,0 -31.4285,-14.07105 -31.4285,-31.42857 0,-17.35752 14.071,-31.42857 31.4285,-31.42857 17.3575,0 31.4286,14.07105 31.4286,31.42857 z"
       sodipodi:ry="31.428572"
       sodipodi:rx="31.428572"
       sodipodi:cy="315.21933"
       sodipodi:cx="-1062.8572"
       id="use4476"
       style="fill:#ff0000;fill-opacity:1;fill-rule:nonzero;stroke:none"
       sodipodi:type="arc"
       transform="matrix(0.42902869,0,0,0.42902869,868.25483,294.92743)" />
    <path
       d="m -1031.4286,315.21933 c 0,17.35752 -14.0711,31.42857 -31.4286,31.42857 -17.3575,0 -31.4285,-14.07105 -31.4285,-31.42857 0,-17.35752 14.071,-31.42857 31.4285,-31.42857 17.3575,0 31.4286,14.07105 31.4286,31.42857 z"
       sodipodi:ry="31.428572"
       sodipodi:rx="31.428572"
       sodipodi:cy="315.21933"
       sodipodi:cx="-1062.8572"
       id="use4478"
       style="fill:#2b0000;fill-opacity:1;fill-rule:nonzero;stroke:none"
       sodipodi:type="arc"
       transform="matrix(0.50702078,0,0,0.50702078,933.89054,200.65022)" />
    <path
       d="m -1031.4286,315.21933 c 0,17.35752 -14.0711,31.42857 -31.4286,31.42857 -17.3575,0 -31.4285,-14.07105 -31.4285,-31.42857 0,-17.35752 14.071,-31.42857 31.4285,-31.42857 17.3575,0 31.4286,14.07105 31.4286,31.42857 z"
       sodipodi:ry="31.428572"
       sodipodi:rx="31.428572"
       sodipodi:cy="315.21933"
       sodipodi:cx="-1062.8572"
       id="use4480"
       style="fill:#ff5555;fill-opacity:1;fill-rule:nonzero;stroke:none"
       sodipodi:type="arc"
       transform="matrix(0.30374061,0,0,0.30374061,688.70244,247.30399)" />
    <path
       d="m -1031.4286,315.21933 c 0,17.35752 -14.0711,31.42857 -31.4286,31.42857 -17.3575,0 -31.4285,-14.07105 -31.4285,-31.42857 0,-17.35752 14.071,-31.42857 31.4285,-31.42857 17.3575,0 31.4286,14.07105 31.4286,31.42857 z"
       sodipodi:ry="31.428572"
       sodipodi:rx="31.428572"
       sodipodi:cy="315.21933"
       sodipodi:cx="-1062.8572"
       id="use4482"
       style="fill:#ffaaaa;fill-opacity:1;fill-rule:nonzero;stroke:none"
       sodipodi:type="arc"
       transform="matrix(0.27032681,0,0,0.27032681,638.75251,306.35738)" />
    <path
       d="m -1031.4286,315.21933 c 0,17.35752 -14.0711,31.42857 -31.4286,31.42857 -17.3575,0 -31.4285,-14.07105 -31.4285,-31.42857 0,-17.35752 14.071,-31.42857 31.4285,-31.42857 17.3575,0 31.4286,14.07105 31.4286,31.42857 z"
       sodipodi:ry="31.428572"
       sodipodi:rx="31.428572"
       sodipodi:cy="315.21933"
       sodipodi:cx="-1062.8572"
       id="use4484"
       style="fill:#ff5555;fill-opacity:1;fill-rule:nonzero;stroke:none"
       sodipodi:type="arc"
       transform="matrix(0.59895994,0,0,0.59895994,1017.031,211.32878)" />
    <path
       d="m -1031.4286,315.21933 c 0,17.35752 -14.0711,31.42857 -31.4286,31.42857 -17.3575,0 -31.4285,-14.07105 -31.4285,-31.42857 0,-17.35752 14.071,-31.42857 31.4285,-31.42857 17.3575,0 31.4286,14.07105 31.4286,31.42857 z"
       sodipodi:ry="31.428572"
       sodipodi:rx="31.428572"
       sodipodi:cy="315.21933"
       sodipodi:cx="-1062.8572"
       id="use4486"
       style="fill:#ffaaaa;fill-opacity:1;fill-rule:nonzero;stroke:none"
       sodipodi:type="arc"
       transform="matrix(0.41110879,0,0,0.41110879,844.17445,301.80267)" />
    <path
       d="m -1031.4286,315.21933 c 0,17.35752 -14.0711,31.42857 -31.4286,31.42857 -17.3575,0 -31.4285,-14.07105 -31.4285,-31.42857 0,-17.35752 14.071,-31.42857 31.4285,-31.42857 17.3575,0 31.4286,14.07105 31.4286,31.42857 z"
       sodipodi:ry="31.428572"
       sodipodi:rx="31.428572"
       sodipodi:cy="315.21933"
       sodipodi:cx="-1062.8572"
       id="use4488"
       style="fill:#ffaaaa;fill-opacity:1;fill-rule:nonzero;stroke:none"
       sodipodi:type="arc"
       transform="matrix(0.23850684,0,0,0.23850684,606.04054,362.76195)" />
    <path
       d="m -1031.4286,315.21933 c 0,17.35752 -14.0711,31.42857 -31.4286,31.42857 -17.3575,0 -31.4285,-14.07105 -31.4285,-31.42857 0,-17.35752 14.071,-31.42857 31.4285,-31.42857 17.3575,0 31.4286,14.07105 31.4286,31.42857 z"
       sodipodi:ry="31.428572"
       sodipodi:rx="31.428572"
       sodipodi:cy="315.21933"
       sodipodi:cx="-1062.8572"
       id="use4490"
       style="fill:#800000;fill-opacity:1;fill-rule:nonzero;stroke:none"
       sodipodi:type="arc"
       transform="matrix(0.36224256,0,0,0.36224256,758.64619,354.11372)" />
    <path
       d="m -1031.4286,315.21933 c 0,17.35752 -14.0711,31.42857 -31.4286,31.42857 -17.3575,0 -31.4285,-14.07105 -31.4285,-31.42857 0,-17.35752 14.071,-31.42857 31.4285,-31.42857 17.3575,0 31.4286,14.07105 31.4286,31.42857 z"
       sodipodi:ry="31.428572"
       sodipodi:rx="31.428572"
       sodipodi:cy="315.21933"
       sodipodi:cx="-1062.8572"
       id="use4492"
       style="fill:#ff8080;fill-opacity:1;fill-rule:nonzero;stroke:none"
       sodipodi:type="arc"
       transform="matrix(0.58336291,0,0,0.58336291,1016.6564,285.74512)" />
    <path
       d="m -1031.4286,315.21933 c 0,17.35752 -14.0711,31.42857 -31.4286,31.42857 -17.3575,0 -31.4285,-14.07105 -31.4285,-31.42857 0,-17.35752 14.071,-31.42857 31.4285,-31.42857 17.3575,0 31.4286,14.07105 31.4286,31.42857 z"
       sodipodi:ry="31.428572"
       sodipodi:rx="31.428572"
       sodipodi:cy="315.21933"
       sodipodi:cx="-1062.8572"
       id="use4494"
       style="fill:#ff0000;fill-opacity:1;fill-rule:nonzero;stroke:none"
       sodipodi:type="arc"
       transform="matrix(0.63526489,0,0,0.63526489,978.30444,189.11644)" />
    <path
       d="m -1031.4286,315.21933 c 0,17.35752 -14.0711,31.42857 -31.4286,31.42857 -17.3575,0 -31.4285,-14.07105 -31.4285,-31.42857 0,-17.35752 14.071,-31.42857 31.4285,-31.42857 17.3575,0 31.4286,14.07105 31.4286,31.42857 z"
       sodipodi:ry="31.428572"
       sodipodi:rx="31.428572"
       sodipodi:cy="315.21933"
       sodipodi:cx="-1062.8572"
       id="use4496"
       style="fill:#ff8080;fill-opacity:1;fill-rule:nonzero;stroke:none"
       sodipodi:type="arc"
       transform="matrix(0.64993651,0,0,0.64993651,993.02075,164.00924)" />
    <path
       d="m -1031.4286,315.21933 c 0,17.35752 -14.0711,31.42857 -31.4286,31.42857 -17.3575,0 -31.4285,-14.07105 -31.4285,-31.42857 0,-17.35752 14.071,-31.42857 31.4285,-31.42857 17.3575,0 31.4286,14.07105 31.4286,31.42857 z"
       sodipodi:ry="31.428572"
       sodipodi:rx="31.428572"
       sodipodi:cy="315.21933"
       sodipodi:cx="-1062.8572"
       id="use4498"
       style="fill:#800000;fill-opacity:1;fill-rule:nonzero;stroke:none"
       sodipodi:type="arc"
       transform="matrix(0.43142237,0,0,0.43142237,756.09523,219.97031)" />
    <path
       d="m -1031.4286,315.21933 c 0,17.35752 -14.0711,31.42857 -31.4286,31.42857 -17.3575,0 -31.4285,-14.07105 -31.4285,-31.42857 0,-17.35752 14.071,-31.42857 31.4285,-31.42857 17.3575,0 31.4286,14.07105 31.4286,31.42857 z"
       sodipodi:ry="31.428572"
       sodipodi:rx="31.428572"
       sodipodi:cy="315.21933"
       sodipodi:cx="-1062.8572"
       id="use4500"
       style="fill:#ff0000;fill-opacity:1;fill-rule:nonzero;stroke:none"
       sodipodi:type="arc"
       transform="matrix(0.25229973,0,0,0.25229973,580.92392,316.37149)" />
    <path
       d="m -1031.4286,315.21933 c 0,17.35752 -14.0711,31.42857 -31.4286,31.42857 -17.3575,0 -31.4285,-14.07105 -31.4285,-31.42857 0,-17.35752 14.071,-31.42857 31.4285,-31.42857 17.3575,0 31.4286,14.07105 31.4286,31.42857 z"
       sodipodi:ry="31.428572"
       sodipodi:rx="31.428572"
       sodipodi:cy="315.21933"
       sodipodi:cx="-1062.8572"
       id="use4504"
       style="fill:#ff0000;fill-opacity:1;fill-rule:nonzero;stroke:none"
       sodipodi:type="arc"
       transform="matrix(0.70941307,0,0,0.70941307,1025.0526,142.10366)" />
    <path
       d="m -1031.4286,315.21933 c 0,17.35752 -14.0711,31.42857 -31.4286,31.42857 -17.3575,0 -31.4285,-14.07105 -31.4285,-31.42857 0,-17.35752 14.071,-31.42857 31.4285,-31.42857 17.3575,0 31.4286,14.07105 31.4286,31.42857 z"
       sodipodi:ry="31.428572"
       sodipodi:rx="31.428572"
       sodipodi:cy="315.21933"
       sodipodi:cx="-1062.8572"
       id="use4508"
       style="fill:#ff0000;fill-opacity:1;fill-rule:nonzero;stroke:none"
       sodipodi:type="arc"
       transform="matrix(0.26834367,0,0,0.26834367,535.56408,297.07267)" />
    <path
       d="m -1031.4286,315.21933 c 0,17.35752 -14.0711,31.42857 -31.4286,31.42857 -17.3575,0 -31.4285,-14.07105 -31.4285,-31.42857 0,-17.35752 14.071,-31.42857 31.4285,-31.42857 17.3575,0 31.4286,14.07105 31.4286,31.42857 z"
       sodipodi:ry="31.428572"
       sodipodi:rx="31.428572"
       sodipodi:cy="315.21933"
       sodipodi:cx="-1062.8572"
       id="use4510"
       style="fill:#ff0000;fill-opacity:1;fill-rule:nonzero;stroke:none"
       sodipodi:type="arc"
       transform="matrix(0.32295513,0,0,0.32295513,587.30824,287.89933)" />
    <path
       d="m -1031.4286,315.21933 c 0,17.35752 -14.0711,31.42857 -31.4286,31.42857 -17.3575,0 -31.4285,-14.07105 -31.4285,-31.42857 0,-17.35752 14.071,-31.42857 31.4285,-31.42857 17.3575,0 31.4286,14.07105 31.4286,31.42857 z"
       sodipodi:ry="31.428572"
       sodipodi:rx="31.428572"
       sodipodi:cy="315.21933"
       sodipodi:cx="-1062.8572"
       id="use4512"
       style="fill:#ff0000;fill-opacity:1;fill-rule:nonzero;stroke:none"
       sodipodi:type="arc"
       transform="matrix(0.37158689,0,0,0.37158689,622.33076,304.38903)" />
    <path
       d="m -1031.4286,315.21933 c 0,17.35752 -14.0711,31.42857 -31.4286,31.42857 -17.3575,0 -31.4285,-14.07105 -31.4285,-31.42857 0,-17.35752 14.071,-31.42857 31.4285,-31.42857 17.3575,0 31.4286,14.07105 31.4286,31.42857 z"
       sodipodi:ry="31.428572"
       sodipodi:rx="31.428572"
       sodipodi:cy="315.21933"
       sodipodi:cx="-1062.8572"
       id="use4516"
       style="fill:#aa0000;fill-opacity:1;fill-rule:nonzero;stroke:none"
       sodipodi:type="arc"
       transform="matrix(0.34180256,0,0,0.34180256,600.07474,265.64825)" />
    <path
       d="m -1031.4286,315.21933 c 0,17.35752 -14.0711,31.42857 -31.4286,31.42857 -17.3575,0 -31.4285,-14.07105 -31.4285,-31.42857 0,-17.35752 14.071,-31.42857 31.4285,-31.42857 17.3575,0 31.4286,14.07105 31.4286,31.42857 z"
       sodipodi:ry="31.428572"
       sodipodi:rx="31.428572"
       sodipodi:cy="315.21933"
       sodipodi:cx="-1062.8572"
       id="use4518"
       style="fill:#800000;fill-opacity:1;fill-rule:nonzero;stroke:none"
       sodipodi:type="arc"
       transform="matrix(0.63913301,0,0,0.63913301,944.74633,176.69736)" />
    <path
       d="m -1031.4286,315.21933 c 0,17.35752 -14.0711,31.42857 -31.4286,31.42857 -17.3575,0 -31.4285,-14.07105 -31.4285,-31.42857 0,-17.35752 14.071,-31.42857 31.4285,-31.42857 17.3575,0 31.4286,14.07105 31.4286,31.42857 z"
       sodipodi:ry="31.428572"
       sodipodi:rx="31.428572"
       sodipodi:cy="315.21933"
       sodipodi:cx="-1062.8572"
       id="use4520"
       style="fill:#550000;fill-opacity:1;fill-rule:nonzero;stroke:none"
       sodipodi:type="arc"
       transform="matrix(0.70830843,0,0,0.70830843,980.44266,265.21052)" />
    <path
       d="m -1031.4286,315.21933 c 0,17.35752 -14.0711,31.42857 -31.4286,31.42857 -17.3575,0 -31.4285,-14.07105 -31.4285,-31.42857 0,-17.35752 14.071,-31.42857 31.4285,-31.42857 17.3575,0 31.4286,14.07105 31.4286,31.42857 z"
       sodipodi:ry="31.428572"
       sodipodi:rx="31.428572"
       sodipodi:cy="315.21933"
       sodipodi:cx="-1062.8572"
       id="use4522"
       style="fill:#ff0000;fill-opacity:1;fill-rule:nonzero;stroke:none"
       sodipodi:type="arc"
       transform="matrix(0.42460974,0,0,0.42460974,690.48004,381.77179)" />
    <path
       d="m -1031.4286,315.21933 c 0,17.35752 -14.0711,31.42857 -31.4286,31.42857 -17.3575,0 -31.4285,-14.07105 -31.4285,-31.42857 0,-17.35752 14.071,-31.42857 31.4285,-31.42857 17.3575,0 31.4286,14.07105 31.4286,31.42857 z"
       sodipodi:ry="31.428572"
       sodipodi:rx="31.428572"
       sodipodi:cy="315.21933"
       sodipodi:cx="-1062.8572"
       id="use4524"
       style="fill:#d40000;fill-opacity:1;fill-rule:nonzero;stroke:none"
       sodipodi:type="arc"
       transform="matrix(0.49768851,0,0,0.49768851,825.03779,255.98467)" />
    <path
       style="fill:#000000;fill-rule:evenodd;stroke:none"
       d="m 319.43906,365.7391 -3.875,137.59535 -50.9375,-61.66383 50.5625,75.34518 -3,106.682 17.375,0 -3,-76.15954 43.5,-61.76155 -44.03125,48.14534 -3.46875,-88.76594 33.625,-35.31093 -34.03125,25.18021 -2.71875,-69.28629 z"
       id="path4935"
       inkscape:connector-curvature="0" />
    <path
       transform="matrix(0.24099527,0,0,0.24099527,459.81016,316.29904)"
       sodipodi:type="arc"
       style="fill:#ff0000;fill-opacity:1;fill-rule:nonzero;stroke:none"
       id="path5089"
       sodipodi:cx="-1062.8572"
       sodipodi:cy="315.21933"
       sodipodi:rx="31.428572"
       sodipodi:ry="31.428572"
       d="m -1031.4286,315.21933 c 0,17.35752 -14.0711,31.42857 -31.4286,31.42857 -17.3575,0 -31.4285,-14.07105 -31.4285,-31.42857 0,-17.35752 14.071,-31.42857 31.4285,-31.42857 17.3575,0 31.4286,14.07105 31.4286,31.42857 z" />
  </g>
</svg>
